<svg width="1260" height="560" viewBox="0 0 1260 560" fill="none" xmlns="http://www.w3.org/2000/svg">
<g clip-path="url(#clip0_154_3267)">
<rect width="1260" height="560" fill="#1C1C1C"/>
<path d="M787 156H1127.88C1130.88 156 1133.75 157.225 1135.82 159.391L1196.94 223.211C1198.91 225.259 1200 227.984 1200 230.82V347.131C1200 349.993 1198.88 352.743 1196.89 354.796L1135.82 417.665C1133.75 419.797 1130.9 421 1127.93 421H787C780.925 421 776 416.075 776 410V167C776 160.925 780.925 156 787 156Z" fill="#1C1C1C" stroke="url(#paint0_linear_154_3267)" stroke-width="2"/>
<g filter="url(#filter0_d_154_3267)">
<circle cx="1161" cy="289" r="18" fill="#1C1C1C"/>
<circle cx="1161" cy="289" r="17" stroke="#FFBF0F" stroke-width="2"/>
</g>
<path d="M892.632 225H909.452C921.567 225 927.196 230.386 927.196 239.792V240.042C927.196 249.326 920.948 254.339 910 254.339H905.247V269.266H892.632V225ZM908.895 245.674C912.989 245.674 915.139 243.756 915.139 240.104V239.854C915.139 236.079 912.911 234.525 908.956 234.525H905.247V245.674H908.895Z" fill="white"/>
<path d="M948.216 269.266H931.397V225H961.822V234.78H944.073L944.012 241.157H948.773C959.717 241.157 965.969 245.981 965.969 254.773V255.019C965.961 263.938 960.336 269.266 948.216 269.266ZM947.721 259.733C951.68 259.733 953.907 258.249 953.907 254.966V254.72C953.907 251.564 951.742 249.83 947.66 249.83H944.012V259.724L947.721 259.733Z" fill="white"/>
<path d="M969.92 225H982.67V242.518L995.948 225H1009.18L992.979 245.551L1010.05 269.266H995.395L982.67 250.748V269.266H969.92V225Z" fill="white"/>
<path d="M1023.27 225.029H1040.08C1052.2 225.029 1057.82 230.41 1057.82 239.813V240.059C1057.82 249.338 1051.58 254.347 1040.62 254.347H1035.9V269.266H1023.27V225.029ZM1039.53 245.686C1043.62 245.686 1045.77 243.772 1045.77 240.12V239.874C1045.77 236.099 1043.54 234.546 1039.59 234.546H1035.9V245.686H1039.53Z" fill="white"/>
<path d="M1062.57 236.886H1073.63V243.321C1075.68 238.497 1079.07 236.394 1084.07 236.456V246.785C1077.34 246.6 1073.63 248.703 1073.63 253.9V269.266H1062.57V236.886Z" fill="white"/>
<path d="M1086.98 253.482V252.986C1086.98 242.596 1094.71 236.038 1104.72 236.038C1114.67 236.038 1122.32 242.411 1122.32 252.679V253.175C1122.32 263.688 1114.6 270 1104.65 270C1094.7 270 1086.98 263.938 1086.98 253.482ZM1111.08 253.281V252.802C1111.08 247.359 1108.92 244.325 1104.72 244.325C1100.52 244.325 1098.29 247.236 1098.29 252.679V253.175C1098.29 258.741 1100.45 261.782 1104.72 261.782C1108.86 261.77 1111.08 258.679 1111.08 253.281Z" fill="white"/>
<path d="M832 225.033V269.299H876.218V225.033H832ZM858.867 234.87L841.826 251.925V234.87H858.867ZM849.352 259.462L866.392 242.403V259.462H849.352Z" fill="white"/>
<g filter="url(#filter1_d_154_3267)">
<rect x="832.828" y="310" width="286" height="46" rx="23" fill="#FFBF0F"/>
<path d="M856.632 340V324.27H859.558V331.398L865.586 324.248H868.732L862.22 331.772L869.062 340H865.608L859.558 332.652V340H856.632ZM874.082 340H871.134V324.27H874.082V336.062L881.386 324.27H884.334V340H881.386V328.142L874.082 340ZM899.155 335.27C899.155 338.306 897.131 340 893.523 340H887.913V324.27H897.791V326.58H890.817V330.562H893.589C897.043 330.562 899.155 332.036 899.155 335.182V335.27ZM890.817 337.756H893.435C895.371 337.756 896.339 336.876 896.339 335.248V335.16C896.339 333.554 895.371 332.674 893.325 332.674H890.817V337.756ZM901.814 340V324.27H911.648V326.58H904.74V330.892H910.284V333.092H904.74V337.69H912.022V340H901.814ZM914.661 340V324.27H919.721C923.241 324.27 925.551 325.832 925.551 329.132V329.22C925.551 332.542 923.153 334.016 919.787 334.016H917.587V340H914.661ZM917.587 331.904H919.721C921.657 331.904 922.691 330.958 922.691 329.22V329.132C922.691 327.262 921.591 326.536 919.721 326.536H917.587V331.904ZM937.836 340V326.624H931.016V340H928.068V324.27H940.784V340H937.836ZM951.546 340.22C946.728 340.22 943.582 336.766 943.582 332.234V332.058C943.582 327.46 946.882 324.05 951.546 324.05C956.232 324.05 959.466 327.372 959.466 331.992V332.168C959.466 336.766 956.32 340.22 951.546 340.22ZM951.59 337.866C954.56 337.866 956.43 335.6 956.43 332.19V332.014C956.43 328.78 954.626 326.382 951.546 326.382C948.466 326.382 946.64 328.648 946.64 332.036V332.212C946.64 335.644 948.73 337.866 951.59 337.866ZM962.292 340V324.27H965.218V330.958H972.28V324.27H975.228V340H972.28V333.312H965.218V340H962.292ZM978.814 340V324.27H988.648V326.58H981.74V330.892H987.284V333.092H981.74V337.69H989.022V340H978.814ZM995.548 333.708C995.416 335.314 995.152 336.678 994.558 337.646H1001.07V326.602H995.9C995.834 328.516 995.724 331.332 995.548 333.708ZM992.864 340L992.754 342.86H990.246V337.646H991.236C992.292 337.25 992.688 335.842 992.93 333.51C993.194 330.386 993.282 326.338 993.282 324.27H1003.97V337.646H1005.84V342.86H1003.31L1003.2 340H992.864ZM1007.9 340V324.27H1017.74V326.58H1010.83V330.892H1016.37V333.092H1010.83V337.69H1018.11V340H1007.9ZM1024.73 334.302C1024.45 337.624 1023.5 340.22 1020.55 340.22C1019.85 340.22 1019.45 340 1019.45 340V337.492C1019.45 337.492 1019.67 337.58 1020.16 337.58C1021.37 337.58 1021.87 336.282 1022.09 333.752C1022.36 330.584 1022.42 326.448 1022.42 324.27H1032.87V340H1029.93V326.624H1025.09C1025.04 328.78 1024.93 331.772 1024.73 334.302ZM1036.48 340V324.27H1039.4V330.232H1041.6C1044.97 330.232 1047.35 331.684 1047.35 335.006V335.094C1047.35 338.394 1045.06 340 1041.54 340H1036.48ZM1039.4 337.734H1041.54C1043.39 337.734 1044.51 336.964 1044.51 335.072V334.984C1044.51 333.246 1043.47 332.366 1041.54 332.366H1039.4V337.734ZM1049.88 340V324.27H1052.81V330.958H1059.87V324.27H1062.82V340H1059.87V333.312H1052.81V340H1049.88ZM1069.35 340H1066.41V324.27H1069.35V336.062L1076.66 324.27H1079.61V340H1076.66V328.142L1069.35 340ZM1083.18 340V324.27H1086.11V331.398L1092.14 324.248H1095.28L1088.77 331.772L1095.61 340H1092.16L1086.11 332.652V340H1083.18Z" fill="#101010"/>
</g>
<rect width="12" height="12" rx="6" transform="matrix(1.19249e-08 1 1 -1.19249e-08 823 328.312)" fill="#FFBF0F"/>
<rect width="12" height="12" rx="6" transform="matrix(1.19249e-08 1 1 -1.19249e-08 1116.83 328.312)" fill="#FFBF0F"/>
<rect width="12" height="12" rx="6" transform="matrix(1.19249e-08 1 1 -1.19249e-08 1027 454)" fill="#FFBF0F"/>
<rect width="12" height="12" rx="6" transform="matrix(1.19249e-08 1 1 -1.19249e-08 951 57)" fill="#FFBF0F"/>
<path d="M957.747 -465L957.747 79.8115C957.747 90.3049 949.241 98.8115 938.747 98.8115L663 98.8115C658.029 98.8115 654 94.782 654 89.8115L654 -73.4018L654 -465C654 -469.971 658.029 -474 663 -474L948.747 -474C953.718 -474 957.747 -469.971 957.747 -465Z" stroke="url(#paint1_linear_154_3267)" stroke-width="2"/>
<path d="M945.518 1024.7L945.518 479.884C945.518 469.39 954.025 460.884 964.518 460.884L1232.53 460.884C1237.5 460.884 1241.53 464.913 1241.53 469.884L1241.53 633.097L1241.53 1024.7C1241.53 1029.67 1237.5 1033.7 1232.53 1033.7L954.518 1033.7C949.547 1033.7 945.518 1029.67 945.518 1024.7Z" stroke="url(#paint2_linear_154_3267)" stroke-width="2"/>
<path d="M1258.77 549.958L1114.05 545.061L1114.05 523.76C1114.05 512.162 1104.65 502.76 1093.05 502.76L1052 502.76C1041.51 502.76 1033 494.253 1033 483.76L1033 461L1241.1 461L1258.77 549.958Z" stroke="url(#paint3_linear_154_3267)" stroke-width="2"/>
<g filter="url(#filter2_d_154_3267)">
<path d="M812.152 25.0586L956.946 32.2738L956.946 73.5628C956.946 85.1608 966.348 94.5628 977.946 94.5628L1019 94.5628C1029.49 94.5628 1038 103.069 1038 113.563L1038 157L829.951 157L812.152 25.0586Z" stroke="url(#paint4_linear_154_3267)" stroke-width="2" shape-rendering="crispEdges"/>
</g>
<rect x="957.47" y="128" width="154.527" height="49.527" rx="7.41081" transform="rotate(4.01766 957.47 128)" fill="#FFBF0F"/>
<path d="M973.466 156.784C973.138 158.804 972.731 160.373 972.054 161.551L978.67 162.016L979.496 150.262L974.321 149.898C974.126 152.15 973.833 154.73 973.466 156.784ZM969.606 165.205L969.202 169.894L964.582 169.57L965.179 161.068L966.288 161.146C967.581 160.717 968.26 158.982 968.8 156.048C969.27 153.592 969.677 149.906 969.965 145.804L985.009 146.86L983.919 162.385L986.654 162.577L986.057 171.078L981.437 170.754L981.693 166.054L969.606 165.205ZM997.707 167.588C991.941 167.183 987.813 163.03 988.236 157.005L988.256 156.709C988.682 150.647 993.359 147.001 999.162 147.408C1004.96 147.816 1009.05 152.004 1008.63 158.029L1008.61 158.324C1008.18 164.423 1003.51 167.995 997.707 167.588ZM998.03 163.524C1001.02 163.735 1002.92 161.639 1003.17 157.98L1003.19 157.721C1003.45 154.024 1001.87 151.685 998.876 151.474C995.919 151.267 993.994 153.286 993.735 156.982L993.714 157.278C993.454 160.974 994.999 163.311 998.03 163.524ZM1019.2 160.368L1019.5 156.117L1028.96 156.782L1028.66 161.033L1019.2 160.368ZM1031.54 169.555L1041.11 148.535L1029.47 147.717L1029.81 142.875L1048.96 144.22L1048.91 144.885L1037.64 169.984L1031.54 169.555ZM1058.78 171.877C1050.79 171.316 1048.29 165.717 1048.8 158.509L1048.84 157.844C1049.47 148.899 1054.66 144.249 1061.13 144.703C1066.38 145.072 1069.53 147.782 1069.78 152.666L1064.24 152.277C1063.99 150.513 1063.18 149.379 1060.89 149.218C1057.6 148.987 1055.36 151.727 1054.83 157.151C1056.19 155.277 1058.28 154.087 1061.46 154.31C1066.45 154.66 1069.96 158.175 1069.58 163.498C1069.2 168.932 1065.06 172.318 1058.78 171.877ZM1059.01 167.547C1061.63 167.732 1063.5 165.931 1063.7 163.159C1063.89 160.387 1062.37 158.348 1059.67 158.159C1057.01 157.972 1055.03 159.727 1054.84 162.351C1054.63 165.382 1056.35 167.36 1059.01 167.547ZM1078.58 159.078C1074.66 158.803 1072.12 155.839 1072.38 152.106C1072.64 148.409 1075.8 145.845 1079.53 146.107C1083.22 146.367 1085.96 149.233 1085.7 152.966C1085.43 156.737 1082.46 159.351 1078.58 159.078ZM1074.51 172.574L1093.93 147.378L1097.25 147.612L1077.84 172.807L1074.51 172.574ZM1078.85 155.754C1080.44 155.866 1081.45 154.748 1081.59 152.715C1081.73 150.756 1080.89 149.471 1079.3 149.36C1077.71 149.248 1076.63 150.361 1076.49 152.357C1076.34 154.464 1077.26 155.643 1078.85 155.754ZM1092.19 174.224C1088.27 173.949 1085.73 170.947 1085.99 167.251C1086.25 163.518 1089.41 160.953 1093.1 161.213C1096.84 161.475 1099.57 164.341 1099.31 168.075C1099.04 171.845 1096.07 174.496 1092.19 174.224ZM1092.43 170.86C1094.05 170.974 1095.06 169.856 1095.2 167.86C1095.34 165.864 1094.5 164.617 1092.87 164.502C1091.32 164.393 1090.24 165.469 1090.1 167.502C1089.95 169.572 1090.87 170.751 1092.43 170.86Z" fill="#101010"/>
</g>
<defs>
<filter id="filter0_d_154_3267" x="1123" y="255" width="76" height="76" filterUnits="userSpaceOnUse" color-interpolation-filters="sRGB">
<feFlood flood-opacity="0" result="BackgroundImageFix"/>
<feColorMatrix in="SourceAlpha" type="matrix" values="0 0 0 0 0 0 0 0 0 0 0 0 0 0 0 0 0 0 127 0" result="hardAlpha"/>
<feOffset dy="4"/>
<feGaussianBlur stdDeviation="10"/>
<feComposite in2="hardAlpha" operator="out"/>
<feColorMatrix type="matrix" values="0 0 0 0 1 0 0 0 0 0.74902 0 0 0 0 0.0588235 0 0 0 0.3 0"/>
<feBlend mode="normal" in2="BackgroundImageFix" result="effect1_dropShadow_154_3267"/>
<feBlend mode="normal" in="SourceGraphic" in2="effect1_dropShadow_154_3267" result="shape"/>
</filter>
<filter id="filter1_d_154_3267" x="796.828" y="273.834" width="366" height="126" filterUnits="userSpaceOnUse" color-interpolation-filters="sRGB">
<feFlood flood-opacity="0" result="BackgroundImageFix"/>
<feColorMatrix in="SourceAlpha" type="matrix" values="0 0 0 0 0 0 0 0 0 0 0 0 0 0 0 0 0 0 127 0" result="hardAlpha"/>
<feOffset dx="4" dy="3.83428"/>
<feGaussianBlur stdDeviation="20"/>
<feComposite in2="hardAlpha" operator="out"/>
<feColorMatrix type="matrix" values="0 0 0 0 1 0 0 0 0 0.74902 0 0 0 0 0.0588235 0 0 0 0.4 0"/>
<feBlend mode="normal" in2="BackgroundImageFix" result="effect1_dropShadow_154_3267"/>
<feBlend mode="normal" in="SourceGraphic" in2="effect1_dropShadow_154_3267" result="shape"/>
</filter>
<filter id="filter2_d_154_3267" x="775" y="-12.1657" width="308" height="214" filterUnits="userSpaceOnUse" color-interpolation-filters="sRGB">
<feFlood flood-opacity="0" result="BackgroundImageFix"/>
<feColorMatrix in="SourceAlpha" type="matrix" values="0 0 0 0 0 0 0 0 0 0 0 0 0 0 0 0 0 0 127 0" result="hardAlpha"/>
<feOffset dx="4" dy="3.83428"/>
<feGaussianBlur stdDeviation="20"/>
<feComposite in2="hardAlpha" operator="out"/>
<feColorMatrix type="matrix" values="0 0 0 0 1 0 0 0 0 0.74902 0 0 0 0 0.0588235 0 0 0 1 0"/>
<feBlend mode="normal" in2="BackgroundImageFix" result="effect1_dropShadow_154_3267"/>
<feBlend mode="normal" in="SourceGraphic" in2="effect1_dropShadow_154_3267" result="shape"/>
</filter>
<linearGradient id="paint0_linear_154_3267" x1="890.5" y1="402" x2="793.5" y2="289" gradientUnits="userSpaceOnUse">
<stop stop-color="#FFBF0F"/>
<stop offset="1" stop-color="#40361C"/>
</linearGradient>
<linearGradient id="paint1_linear_154_3267" x1="958.747" y1="-187.594" x2="653" y2="-187.594" gradientUnits="userSpaceOnUse">
<stop stop-color="#FFBF0F"/>
<stop offset="1" stop-color="#FFBF0F" stop-opacity="0"/>
</linearGradient>
<linearGradient id="paint2_linear_154_3267" x1="944.518" y1="747.289" x2="1242.53" y2="747.289" gradientUnits="userSpaceOnUse">
<stop stop-color="#FFBF0F"/>
<stop offset="1" stop-color="#FFBF0F" stop-opacity="0"/>
</linearGradient>
<linearGradient id="paint3_linear_154_3267" x1="1032" y1="503.76" x2="1146" y2="551" gradientUnits="userSpaceOnUse">
<stop stop-color="#FFBF0F"/>
<stop offset="1" stop-color="#FFBF0F" stop-opacity="0"/>
</linearGradient>
<linearGradient id="paint4_linear_154_3267" x1="1039" y1="93.5629" x2="915.226" y2="58.7312" gradientUnits="userSpaceOnUse">
<stop stop-color="#FFBF0F"/>
<stop offset="1" stop-color="#FFBF0F" stop-opacity="0"/>
</linearGradient>
<clipPath id="clip0_154_3267">
<rect width="1260" height="560" fill="white"/>
</clipPath>
</defs>
</svg>
