<svg width="300" height="600" viewBox="0 0 300 600" fill="none" xmlns="http://www.w3.org/2000/svg">
<g clip-path="url(#clip0_166_5494)">
<rect width="300" height="600" fill="#101010"/>
<path d="M67 43V66.9356H90.9154V43H67ZM76.1857 61.5956L85.5864 52.1905V61.5956H76.1857ZM72.329 57.9012V48.34H81.8861L72.329 57.9012Z" fill="white"/>
<path d="M98.675 66.8486H105.463V58.8299H108.025C113.914 58.8299 117.274 56.1348 117.274 51.1439V51.0108C117.274 45.9534 114.247 43.0587 107.725 43.0587H98.675V66.8486ZM105.463 54.1717V48.1826H107.459C109.588 48.1826 110.786 49.0145 110.786 51.0441V51.1772C110.786 53.1403 109.622 54.1717 107.426 54.1717H105.463Z" fill="white"/>
<path d="M139.312 59.1959V59.0628C139.312 54.3381 135.952 51.7428 130.063 51.7428H127.501L127.534 48.3157H137.083V43.0587H120.713V66.8486H129.763C136.285 66.8486 139.312 63.9871 139.312 59.1959ZM127.501 61.7246V56.401H129.464C131.66 56.401 132.824 57.3326 132.824 59.0295V59.1626C132.824 60.926 131.626 61.7246 129.497 61.7246H127.501Z" fill="white"/>
<path d="M142.621 66.8486H149.475V56.9001L156.329 66.8486H164.215L155.032 54.1052L163.749 43.0587H156.629L149.475 52.4748V43.0587H142.621V66.8486Z" fill="white"/>
<path d="M173.992 66.8486H180.78V58.8299H183.342C189.231 58.8299 192.591 56.1348 192.591 51.1439V51.0108C192.591 45.9534 189.564 43.0587 183.042 43.0587H173.992V66.8486ZM180.78 54.1717V48.1826H182.776C184.905 48.1826 186.103 49.0145 186.103 51.0441V51.1772C186.103 53.1403 184.939 54.1717 182.743 54.1717H180.78Z" fill="white"/>
<path d="M195.498 66.8486H201.453V58.597C201.453 55.8021 203.45 54.6708 207.076 54.7706V49.2141C204.381 49.1808 202.551 50.3121 201.453 52.9073V49.447H195.498V66.8486Z" fill="white"/>
<path d="M218.484 67.2478C223.841 67.2478 228 63.854 228 58.1977V57.9315C228 52.4083 223.874 48.9812 218.517 48.9812C213.127 48.9812 208.968 52.5081 208.968 58.0979V58.3641C208.968 63.9871 213.127 67.2478 218.484 67.2478ZM218.517 62.8226C216.221 62.8226 215.057 61.1922 215.057 58.1977V57.9315C215.057 55.0035 216.288 53.4397 218.517 53.4397C220.78 53.4397 221.944 55.0701 221.944 57.9981V58.2642C221.944 61.159 220.747 62.8226 218.517 62.8226Z" fill="white"/>
<path d="M33.8969 113.264C28.5209 113.264 25.0889 109.544 25.0889 104.528V104.336C25.0889 99.224 28.8329 95.6 33.9209 95.6C39.0809 95.6 42.7529 99.08 42.7529 104.24V104.432C42.7529 109.544 39.2489 113.264 33.8969 113.264ZM33.9689 110.168C36.8729 110.168 38.6969 107.936 38.6969 104.48V104.288C38.6969 100.952 36.9209 98.672 33.9209 98.672C30.9449 98.672 29.1449 100.856 29.1449 104.312V104.504C29.1449 108.008 31.1609 110.168 33.9689 110.168ZM55.1438 100.448V102.92H51.4238V113H47.9678V102.92H44.2478V100.448H55.1438ZM64.7266 113L60.5506 107.072V113H57.0946V100.448H60.5506V105.824L64.6066 100.448H68.3026L63.7186 106.184L68.6626 113H64.7266ZM74.4391 107.84C74.0791 111.32 73.1431 113.24 70.6231 113.24C69.7831 113.24 69.4231 113.048 69.4231 113.048V110.288C69.4231 110.288 69.5911 110.384 69.9511 110.384C70.8631 110.384 71.2711 109.208 71.4391 107.144C71.6071 105.512 71.6791 100.448 71.6791 100.448H81.3511V113H77.9191V102.92H74.6791C74.6551 104.528 74.5831 106.376 74.4391 107.84ZM88.8622 110.84C90.3982 110.84 91.5742 110 91.5742 108.608V107.552H90.2302C88.2142 107.552 87.0382 107.984 87.0382 109.328C87.0382 110.24 87.5902 110.84 88.8622 110.84ZM87.8302 113.264C85.5502 113.264 83.6302 112.16 83.6302 109.52C83.6302 106.592 86.3182 105.488 90.1582 105.488H91.5742V104.984C91.5742 103.496 91.1182 102.68 89.5342 102.68C88.1662 102.68 87.5422 103.376 87.3982 104.456H84.1102C84.3262 101.48 86.6782 100.16 89.7502 100.16C92.8222 100.16 95.0062 101.408 95.0062 104.816V113H91.6222V111.488C90.9022 112.496 89.7982 113.264 87.8302 113.264ZM101.905 107.384C101.785 108.704 101.593 109.736 101.209 110.528H105.505V102.896H102.145C102.121 104.36 102.049 106.04 101.905 107.384ZM99.793 113L99.745 116.048H96.745V110.528H97.465C98.281 110.192 98.641 109.04 98.857 107.12C99.049 105.512 99.145 103.112 99.145 100.448H108.913V110.528H110.689V116.048H107.689L107.641 113H99.793ZM124.139 113V100.448H127.571V113H124.139ZM112.595 113V100.448H116.027V104.432H118.139C121.043 104.432 122.987 105.944 122.987 108.704V108.776C122.987 111.512 121.163 113 118.019 113H112.595ZM116.027 110.552H117.395C118.787 110.552 119.483 110.048 119.483 108.752V108.68C119.483 107.48 118.835 106.856 117.395 106.856H116.027V110.552ZM130.689 113V100.448H136.161C138.969 100.448 140.865 101.36 140.865 103.544V103.592C140.865 105.032 140.097 106.016 138.465 106.4C140.289 106.712 141.369 107.6 141.369 109.256V109.28C141.369 111.632 139.713 113 136.545 113H130.689ZM135.345 102.632H134.121V105.488H135.489C136.737 105.488 137.313 105.032 137.313 104V103.976C137.313 102.92 136.617 102.632 135.345 102.632ZM135.945 107.648H134.121V110.84H135.777C137.145 110.84 137.841 110.384 137.841 109.256V109.232C137.841 108.176 137.241 107.648 135.945 107.648ZM148.253 110.84C149.789 110.84 150.965 110 150.965 108.608V107.552H149.621C147.605 107.552 146.429 107.984 146.429 109.328C146.429 110.24 146.981 110.84 148.253 110.84ZM147.221 113.264C144.941 113.264 143.021 112.16 143.021 109.52C143.021 106.592 145.709 105.488 149.549 105.488H150.965V104.984C150.965 103.496 150.509 102.68 148.925 102.68C147.557 102.68 146.933 103.376 146.789 104.456H143.501C143.717 101.48 146.069 100.16 149.141 100.16C152.213 100.16 154.397 101.408 154.397 104.816V113H151.013V111.488C150.293 112.496 149.189 113.264 147.221 113.264ZM167.034 100.448V102.92H163.314V113H159.858V102.92H156.138V100.448H167.034ZM169.009 113V100.448H172.441V104.432H174.721C177.649 104.432 179.569 105.992 179.569 108.752V108.824C179.569 111.584 177.745 113 174.625 113H169.009ZM172.441 110.576H173.953C175.393 110.576 176.065 110.024 176.065 108.8V108.728C176.065 107.456 175.369 106.856 173.953 106.856H172.441V110.576ZM195.191 113V107.84H190.535V113H187.103V100.448H190.535V105.368H195.191V100.448H198.623V113H195.191ZM207.511 113.264C203.719 113.264 200.959 110.888 200.959 106.88V106.688C200.959 102.728 203.767 100.16 207.415 100.16C210.655 100.16 213.535 102.056 213.535 106.544V107.504H204.487C204.583 109.592 205.711 110.792 207.607 110.792C209.215 110.792 210.007 110.096 210.223 109.04H213.511C213.103 111.752 210.943 113.264 207.511 113.264ZM204.535 105.368H210.151C210.031 103.472 209.071 102.56 207.415 102.56C205.855 102.56 204.799 103.592 204.535 105.368ZM223.445 113L219.269 107.072V113H215.813V100.448H219.269V105.824L223.325 100.448H227.021L222.437 106.184L227.381 113H223.445ZM230.71 117.272L232.918 111.728L227.926 100.448H231.67L234.718 107.984L237.526 100.448H240.862L234.07 117.272H230.71ZM245.928 107.384C245.808 108.704 245.616 109.736 245.232 110.528H249.528V102.896H246.168C246.144 104.36 246.072 106.04 245.928 107.384ZM243.816 113L243.768 116.048H240.768V110.528H241.488C242.304 110.192 242.664 109.04 242.88 107.12C243.072 105.512 243.168 103.112 243.168 100.448H252.936V110.528H254.712V116.048H251.712L251.664 113H243.816ZM261.128 110.84C262.664 110.84 263.84 110 263.84 108.608V107.552H262.496C260.48 107.552 259.304 107.984 259.304 109.328C259.304 110.24 259.856 110.84 261.128 110.84ZM260.096 113.264C257.816 113.264 255.896 112.16 255.896 109.52C255.896 106.592 258.584 105.488 262.424 105.488H263.84V104.984C263.84 103.496 263.384 102.68 261.8 102.68C260.432 102.68 259.808 103.376 259.664 104.456H256.376C256.592 101.48 258.944 100.16 262.016 100.16C265.088 100.16 267.272 101.408 267.272 104.816V113H263.888V111.488C263.168 112.496 262.064 113.264 260.096 113.264ZM271.387 115.952L269.275 115.064L271.387 109.136L274.651 110.36L271.387 115.952ZM44.9805 142L40.8045 136.072V142H37.3485V129.448H40.8045V134.824L44.8605 129.448H48.5565L43.9725 135.184L48.9165 142H44.9805ZM54.117 142H50.685V129.448H54.117V137.824L58.965 129.448H62.397V142H58.965V133.624L54.117 142ZM71.3306 142.264C67.2986 142.264 64.7306 139.936 64.7306 134.416V133.624C64.7306 127.672 67.0346 124.12 72.1946 123.88L73.1306 123.856C74.9786 123.76 76.1066 123.64 76.7786 123.4V126.04C76.0826 126.352 75.2186 126.592 73.0346 126.712L72.2426 126.736C69.0266 126.904 67.7066 128.872 67.3706 131.992H67.5146C68.3306 130.528 69.6986 129.472 72.1466 129.472C75.6026 129.472 77.9546 132.136 77.9546 135.712V135.88C77.9546 139.84 75.0986 142.264 71.3306 142.264ZM71.3546 139.624C73.2986 139.624 74.4266 138.256 74.4266 135.904V135.76C74.4266 133.48 73.3946 132.112 71.4506 132.112C69.4586 132.112 68.2826 133.48 68.2826 135.808V135.928C68.2826 138.232 69.3866 139.624 71.3546 139.624ZM86.0466 142.264C82.2546 142.264 79.4946 139.888 79.4946 135.88V135.688C79.4946 131.728 82.3026 129.16 85.9506 129.16C89.1906 129.16 92.0706 131.056 92.0706 135.544V136.504H83.0226C83.1186 138.592 84.2466 139.792 86.1426 139.792C87.7506 139.792 88.5426 139.096 88.7586 138.04H92.0466C91.6386 140.752 89.4786 142.264 86.0466 142.264ZM83.0706 134.368H88.6866C88.5666 132.472 87.6066 131.56 85.9506 131.56C84.3906 131.56 83.3346 132.592 83.0706 134.368ZM100.805 139.552C102.725 139.552 103.781 138.256 103.781 135.808V135.616C103.781 133.072 102.533 131.824 100.781 131.824C98.9565 131.824 97.7085 133.096 97.7085 135.616V135.808C97.7085 138.328 98.9085 139.552 100.805 139.552ZM94.3485 146.272V129.448H97.8285V131.416C98.5245 130.216 99.9885 129.16 101.837 129.16C104.909 129.16 107.309 131.44 107.309 135.592V135.784C107.309 139.936 104.957 142.264 101.837 142.264C99.8925 142.264 98.4765 141.304 97.8285 140.08V146.272H94.3485ZM117.502 142V131.92H113.086V142H109.654V129.448H120.934V142H117.502ZM129.852 142.264C126.108 142.264 123.252 139.768 123.252 135.856V135.664C123.252 131.728 126.108 129.16 129.876 129.16C133.644 129.16 136.476 131.68 136.476 135.592V135.784C136.476 139.744 133.62 142.264 129.852 142.264ZM129.876 139.624C131.82 139.624 132.948 138.184 132.948 135.808V135.64C132.948 133.24 131.82 131.8 129.876 131.8C127.956 131.8 126.804 133.192 126.804 135.592V135.784C126.804 138.184 127.908 139.624 129.876 139.624ZM146.898 142V136.84H142.242V142H138.81V129.448H142.242V134.368H146.898V129.448H150.33V142H146.898ZM159.218 142.264C155.426 142.264 152.666 139.888 152.666 135.88V135.688C152.666 131.728 155.474 129.16 159.122 129.16C162.362 129.16 165.242 131.056 165.242 135.544V136.504H156.194C156.29 138.592 157.418 139.792 159.314 139.792C160.922 139.792 161.714 139.096 161.93 138.04H165.218C164.81 140.752 162.65 142.264 159.218 142.264ZM156.242 134.368H161.858C161.738 132.472 160.778 131.56 159.122 131.56C157.562 131.56 156.506 132.592 156.242 134.368ZM171.432 136.384C171.312 137.704 171.12 138.736 170.736 139.528H175.032V131.896H171.672C171.648 133.36 171.576 135.04 171.432 136.384ZM169.32 142L169.272 145.048H166.272V139.528H166.992C167.808 139.192 168.168 138.04 168.384 136.12C168.576 134.512 168.672 132.112 168.672 129.448H178.44V139.528H180.216V145.048H177.216L177.168 142H169.32ZM187.765 142.264C183.973 142.264 181.213 139.888 181.213 135.88V135.688C181.213 131.728 184.021 129.16 187.669 129.16C190.909 129.16 193.789 131.056 193.789 135.544V136.504H184.741C184.837 138.592 185.965 139.792 187.861 139.792C189.469 139.792 190.261 139.096 190.477 138.04H193.765C193.357 140.752 191.197 142.264 187.765 142.264ZM184.789 134.368H190.405C190.285 132.472 189.325 131.56 187.669 131.56C186.109 131.56 185.053 132.592 184.789 134.368ZM200.216 136.84C199.856 140.32 198.92 142.24 196.4 142.24C195.56 142.24 195.2 142.048 195.2 142.048V139.288C195.2 139.288 195.368 139.384 195.728 139.384C196.64 139.384 197.048 138.208 197.216 136.144C197.384 134.512 197.456 129.448 197.456 129.448H207.128V142H203.696V131.92H200.456C200.432 133.528 200.36 135.376 200.216 136.84ZM210.248 142V129.448H213.68V133.432H215.96C218.888 133.432 220.807 134.992 220.807 137.752V137.824C220.807 140.584 218.984 142 215.864 142H210.248ZM213.68 139.576H215.192C216.632 139.576 217.304 139.024 217.304 137.8V137.728C217.304 136.456 216.608 135.856 215.192 135.856H213.68V139.576ZM231.109 142V136.84H226.453V142H223.021V129.448H226.453V134.368H231.109V129.448H234.541V142H231.109ZM241.101 142H237.669V129.448H241.101V137.824L245.949 129.448H249.381V142H245.949V133.624L241.101 142ZM260.043 142L255.867 136.072V142H252.411V129.448H255.867V134.824L259.923 129.448H263.619L259.035 135.184L263.979 142H260.043ZM119.019 171V165.84H114.363V171H110.931V158.448H114.363V163.368H119.019V158.448H122.451V171H119.019ZM129.972 168.84C131.508 168.84 132.684 168 132.684 166.608V165.552H131.34C129.324 165.552 128.148 165.984 128.148 167.328C128.148 168.24 128.7 168.84 129.972 168.84ZM128.94 171.264C126.66 171.264 124.74 170.16 124.74 167.52C124.74 164.592 127.428 163.488 131.268 163.488H132.684V162.984C132.684 161.496 132.228 160.68 130.644 160.68C129.276 160.68 128.652 161.376 128.508 162.456H125.22C125.436 159.48 127.788 158.16 130.86 158.16C133.932 158.16 136.116 159.408 136.116 162.816V171H132.732V169.488C132.012 170.496 130.908 171.264 128.94 171.264ZM144.79 171.264C141.118 171.264 138.334 168.984 138.334 164.88V164.688C138.334 160.632 141.238 158.16 144.814 158.16C147.718 158.16 150.406 159.432 150.718 163.032H147.43C147.19 161.568 146.302 160.896 144.886 160.896C143.086 160.896 141.886 162.24 141.886 164.64V164.832C141.886 167.352 143.014 168.648 144.958 168.648C146.35 168.648 147.478 167.832 147.646 166.224H150.79C150.598 169.2 148.438 171.264 144.79 171.264ZM162.745 158.448V160.92H159.025V171H155.569V160.92H151.849V158.448H162.745ZM168.995 168.84C170.531 168.84 171.707 168 171.707 166.608V165.552H170.363C168.347 165.552 167.171 165.984 167.171 167.328C167.171 168.24 167.723 168.84 168.995 168.84ZM167.963 171.264C165.683 171.264 163.763 170.16 163.763 167.52C163.763 164.592 166.451 163.488 170.291 163.488H171.707V162.984C171.707 161.496 171.251 160.68 169.667 160.68C168.299 160.68 167.675 161.376 167.531 162.456H164.243C164.459 159.48 166.811 158.16 169.883 158.16C172.955 158.16 175.139 159.408 175.139 162.816V171H171.755V169.488C171.035 170.496 169.931 171.264 167.963 171.264ZM182.158 165.84C181.798 169.32 180.862 171.24 178.342 171.24C177.502 171.24 177.142 171.048 177.142 171.048V168.288C177.142 168.288 177.31 168.384 177.67 168.384C178.582 168.384 178.99 167.208 179.158 165.144C179.326 163.512 179.398 158.448 179.398 158.448H189.07V171H185.638V160.92H182.398C182.374 162.528 182.302 164.376 182.158 165.84Z" fill="white"/>
<path d="M67.169 455.162C63.443 455.162 61.157 452.606 61.157 448.646V448.502C61.157 444.686 63.713 441.932 67.205 441.932C69.887 441.932 72.155 443.354 72.425 446.144H70.877C70.553 444.182 69.419 443.174 67.223 443.174C64.559 443.174 62.777 445.244 62.777 448.484V448.628C62.777 451.904 64.433 453.884 67.205 453.884C69.311 453.884 70.769 452.822 71.093 450.734H72.551C72.101 453.704 70.049 455.162 67.169 455.162ZM80.4974 455L76.3214 450.194V455H74.8274V445.586H76.3214V449.978L80.2274 445.586H81.9734L77.9414 450.014L82.3154 455H80.4974ZM85.6027 455H84.1087V445.586H85.6027V452.84L90.4087 445.586H91.9027V455H90.4087V447.746L85.6027 455ZM96.5794 451.364C96.4534 452.462 96.2734 453.218 95.9674 453.74H100.377V446.81H96.9214C96.8674 448.052 96.7414 449.96 96.5794 451.364ZM94.8154 455L94.7074 457.286H93.5014V453.74H94.1674C94.9234 453.542 95.0494 452.48 95.2114 451.274C95.4814 449.078 95.6254 445.586 95.6254 445.586H101.835V453.74H103.275V457.286H102.069L101.961 455H94.8154ZM110.82 455L106.644 450.194V455H105.15V445.586H106.644V449.978L110.55 445.586H112.296L108.264 450.014L112.638 455H110.82ZM115.925 455H114.431V445.586H115.925V452.84L120.731 445.586H122.225V455H120.731V447.746L115.925 455ZM135.949 455V450.806H131.323V455H129.829V445.586H131.323V449.546H135.949V445.586H137.443V455H135.949ZM142.966 453.974C144.55 453.974 145.756 453.164 145.756 451.706V450.536H144.46C142.57 450.536 141.184 451.004 141.184 452.39C141.184 453.362 141.652 453.974 142.966 453.974ZM142.822 455.162C141.076 455.162 139.69 454.316 139.69 452.39C139.69 450.212 141.994 449.474 144.406 449.474H145.756V448.79C145.756 447.296 145.18 446.666 143.74 446.666C142.444 446.666 141.724 447.206 141.58 448.358H140.086C140.284 446.216 141.994 445.424 143.812 445.424C145.612 445.424 147.25 446.162 147.25 448.79V455H145.756V453.812C145.054 454.694 144.208 455.162 142.822 455.162ZM160.889 455V446.846H156.443V455H154.949V445.586H162.383V455H160.889ZM169.314 455.162C166.632 455.162 164.706 453.128 164.706 450.374V450.23C164.706 447.404 166.668 445.424 169.332 445.424C171.996 445.424 173.958 447.386 173.958 450.212V450.356C173.958 453.2 171.996 455.162 169.314 455.162ZM169.332 453.92C171.222 453.92 172.41 452.498 172.41 450.374V450.248C172.41 448.07 171.204 446.666 169.332 446.666C167.442 446.666 166.254 448.07 166.254 450.23V450.374C166.254 452.516 167.424 453.92 169.332 453.92ZM177.843 451.364C177.717 452.462 177.537 453.218 177.231 453.74H181.641V446.81H178.185C178.131 448.052 178.005 449.96 177.843 451.364ZM176.079 455L175.971 457.286H174.765V453.74H175.431C176.187 453.542 176.313 452.48 176.475 451.274C176.745 449.078 176.889 445.586 176.889 445.586H183.099V453.74H184.539V457.286H183.333L183.225 455H176.079ZM192.353 455V446.846H187.907V455H186.413V445.586H193.847V455H192.353ZM198.366 455H196.872V445.586H198.366V452.84L203.172 445.586H204.666V455H203.172V447.746L198.366 455ZM211.413 455.162C208.785 455.162 206.805 453.308 206.805 450.392V450.248C206.805 447.368 208.857 445.424 211.377 445.424C213.339 445.424 215.175 446.324 215.463 448.718H213.987C213.753 447.224 212.673 446.666 211.377 446.666C209.667 446.666 208.353 448.034 208.353 450.248V450.392C208.353 452.696 209.613 453.92 211.431 453.92C212.763 453.92 213.969 453.146 214.131 451.616H215.517C215.319 453.65 213.681 455.162 211.413 455.162ZM223.443 455L219.267 450.194V455H217.773V445.586H219.267V449.978L223.173 445.586H224.919L220.887 450.014L225.261 455H223.443ZM227.9 458.276L229.682 454.028L225.992 445.586H227.594L230.474 452.336L233.084 445.586H234.614L229.412 458.276H227.9ZM118.641 477H117.147V467.586H118.641V474.84L123.447 467.586H124.941V477H123.447V469.746L118.641 477ZM136.451 477.162C133.769 477.162 131.843 475.128 131.843 472.374V472.23C131.843 469.404 133.805 467.424 136.469 467.424C139.133 467.424 141.095 469.386 141.095 472.212V472.356C141.095 475.2 139.133 477.162 136.451 477.162ZM136.469 475.92C138.359 475.92 139.547 474.498 139.547 472.374V472.248C139.547 470.07 138.341 468.666 136.469 468.666C134.579 468.666 133.391 470.07 133.391 472.23V472.374C133.391 474.516 134.561 475.92 136.469 475.92ZM149.348 477V468.846H144.902V477H143.408V467.586H150.842V477H149.348ZM162.741 479.286H161.535L161.427 477H153.867V467.586H155.361V475.74H159.807V467.586H161.301V475.74H162.741V479.286ZM166.102 477H164.608V467.586H166.102V474.84L170.908 467.586H172.402V477H170.908V469.746L166.102 477ZM176.736 477H175.242V467.586H176.736V474.84L181.542 467.586H183.036V477H181.542V469.746L176.736 477Z" fill="white"/>
<rect x="24" y="498" width="252" height="44" rx="4" fill="#FFBF0F"/>
<path d="M60.64 526V511.7H63.3V518.18L68.78 511.68H71.64L65.72 518.52L71.94 526H68.8L63.3 519.32V526H60.64ZM73.8852 529.58L75.7852 524.94L71.6452 515.54H74.2652L77.0452 522.28L79.6052 515.54H81.9652L76.2652 529.58H73.8852ZM90.3398 526V517.34H86.1998V526H83.7798V515.54H92.7598V526H90.3398ZM98.0553 526H95.6353V515.54H98.0553V522.94L102.575 515.54H104.975V526H102.575V518.6L98.0553 526ZM115.584 515.54V517.34H112.384V526H109.964V517.34H106.764V515.54H115.584ZM117.471 526V515.54H119.891V518.98H121.771C124.111 518.98 125.791 520.18 125.791 522.52V522.58C125.791 524.94 124.151 526 121.711 526H117.471ZM119.891 524.26H121.411C122.771 524.26 123.351 523.7 123.351 522.56V522.5C123.351 521.32 122.731 520.74 121.411 520.74H119.891V524.26ZM137.149 526.2C134.149 526.2 131.869 524.24 131.869 520.9V520.74C131.869 517.42 134.229 515.32 137.149 515.32C139.469 515.32 141.649 516.36 141.929 519.24H139.589C139.389 517.84 138.469 517.26 137.189 517.26C135.529 517.26 134.349 518.54 134.349 520.7V520.86C134.349 523.14 135.469 524.34 137.249 524.34C138.529 524.34 139.629 523.58 139.769 522.1H141.989C141.809 524.5 139.989 526.2 137.149 526.2ZM148.733 526.2C145.653 526.2 143.373 524.06 143.373 520.88V520.72C143.373 517.48 145.673 515.32 148.753 515.32C151.813 515.32 154.113 517.46 154.113 520.66V520.82C154.113 524.08 151.813 526.2 148.733 526.2ZM148.753 524.32C150.553 524.32 151.633 522.98 151.633 520.84V520.7C151.633 518.54 150.553 517.22 148.753 517.22C146.953 517.22 145.853 518.52 145.853 520.68V520.84C145.853 522.98 146.913 524.32 148.753 524.32ZM165.645 526.2C162.645 526.2 160.365 524.24 160.365 520.9V520.74C160.365 517.42 162.725 515.32 165.645 515.32C167.965 515.32 170.145 516.36 170.425 519.24H168.085C167.885 517.84 166.965 517.26 165.685 517.26C164.025 517.26 162.845 518.54 162.845 520.7V520.86C162.845 523.14 163.965 524.34 165.745 524.34C167.025 524.34 168.125 523.58 168.265 522.1H170.485C170.305 524.5 168.485 526.2 165.645 526.2ZM178.909 526L174.989 520.88V526H172.569V515.54H174.989V520.18L178.729 515.54H181.369L177.309 520.38L181.709 526H178.909ZM185.79 526H183.37V515.54H185.79V522.94L190.31 515.54H192.71V526H190.31V518.6L185.79 526ZM198.299 521.56C198.179 522.72 197.999 523.56 197.679 524.2H201.739V517.32H198.559C198.519 518.6 198.419 520.28 198.299 521.56ZM196.459 526L196.379 528.54H194.319V524.2H194.979C195.719 523.94 195.959 522.9 196.139 521.4C196.339 519.62 196.459 516.92 196.459 515.54H204.139V524.2H205.659V528.54H203.599L203.519 526H196.459ZM213.753 526L209.833 520.88V526H207.413V515.54H209.833V520.18L213.573 515.54H216.213L212.153 520.38L216.553 526H213.753ZM222.366 526.2C219.286 526.2 217.006 524.06 217.006 520.88V520.72C217.006 517.48 219.306 515.32 222.386 515.32C225.446 515.32 227.746 517.46 227.746 520.66V520.82C227.746 524.08 225.446 526.2 222.366 526.2ZM222.386 524.32C224.186 524.32 225.266 522.98 225.266 520.84V520.7C225.266 518.54 224.186 517.22 222.386 517.22C220.586 517.22 219.486 518.52 219.486 520.68V520.84C219.486 522.98 220.546 524.32 222.386 524.32ZM234.552 513.86C232.872 513.86 231.752 512.72 231.652 511.06H233.472C233.532 511.76 233.832 512.36 234.552 512.36C235.292 512.36 235.632 511.76 235.712 511.06H237.512C237.412 512.72 236.212 513.86 234.552 513.86ZM232.352 526H229.932V515.54H232.352V522.94L236.872 515.54H239.272V526H236.872V518.6L232.352 526Z" fill="#101010"/>
<rect width="6.72896" height="6.72896" rx="3.36448" transform="matrix(1.19249e-08 1 1 -1.19249e-08 135.654 365.822)" fill="#FFBF0F"/>
<path d="M272.629 170.89L192.039 174.906L192.039 197.792C192.039 204.451 186.641 209.848 179.983 209.848L156.962 209.848C151.233 209.848 146.588 214.493 146.588 220.222L146.588 244.299L262.726 244.299L272.629 170.89Z" stroke="url(#paint0_linear_166_5494)" stroke-width="1.68224"/>
<g filter="url(#filter0_d_166_5494)">
<path d="M230.167 231.682H38.6446C34.9283 231.682 31.9156 234.695 31.9156 238.411V348.317C31.9156 352.034 34.9283 355.046 38.6446 355.046H230.194C231.788 355.046 233.33 354.48 234.546 353.449L268.417 324.719C269.925 323.441 270.794 321.564 270.794 319.588V267.574C270.794 265.614 269.939 263.752 268.453 262.473L234.555 233.31C233.334 232.26 231.777 231.682 230.167 231.682Z" fill="#101010"/>
<path d="M38.6446 232.523H230.167C231.576 232.523 232.938 233.029 234.007 233.948L267.905 263.111C269.205 264.229 269.953 265.859 269.953 267.574V319.588C269.953 321.317 269.192 322.959 267.873 324.078L234.002 352.808C232.938 353.71 231.589 354.205 230.194 354.205H38.6446C35.3928 354.205 32.7568 351.569 32.7568 348.317V238.411C32.7568 235.159 35.3928 232.523 38.6446 232.523Z" stroke="url(#paint1_linear_166_5494)" stroke-width="1.68224"/>
</g>
<rect x="77.3588" y="262" width="139.938" height="47.9384" rx="7.17538" transform="rotate(4.01766 77.3588 262)" fill="#FFBF0F"/>
<path d="M90.7317 291.365C90.4818 292.905 90.1711 294.102 89.6547 295.001L94.7015 295.355L95.3313 286.389L91.384 286.112C91.235 287.83 91.0118 289.798 90.7317 291.365ZM87.7872 297.788L87.4793 301.365L83.955 301.117L84.4104 294.632L85.2563 294.692C86.2426 294.364 86.7606 293.041 87.1728 290.803C87.531 288.93 87.8418 286.118 88.0616 282.989L99.5369 283.794L98.7052 295.636L100.792 295.783L100.336 302.268L96.8118 302.02L97.0069 298.435L87.7872 297.788ZM109.223 299.605C104.824 299.296 101.675 296.128 101.998 291.532L102.014 291.307C102.339 286.683 105.906 283.902 110.332 284.213C114.759 284.524 117.878 287.718 117.555 292.313L117.539 292.539C117.212 297.191 113.649 299.916 109.223 299.605ZM109.469 296.506C111.753 296.666 113.197 295.067 113.393 292.276L113.406 292.079C113.604 289.259 112.398 287.475 110.114 287.314C107.859 287.156 106.391 288.696 106.193 291.515L106.177 291.741C105.979 294.56 107.157 296.343 109.469 296.506ZM127.757 292.539L128.046 288.423L137.208 289.067L136.918 293.182L127.757 292.539ZM139.704 301.434L148.974 281.082L137.7 280.29L138.03 275.602L156.568 276.904L156.523 277.548L145.609 301.849L139.704 301.434ZM166.079 303.682C158.348 303.139 155.924 297.718 156.414 290.739L156.459 290.095C157.067 281.434 162.095 276.932 168.358 277.372C173.44 277.729 176.493 280.353 176.736 285.082L171.368 284.705C171.128 282.997 170.342 281.899 168.123 281.743C164.938 281.52 162.773 284.173 162.261 289.424C163.575 287.61 165.598 286.457 168.676 286.673C173.507 287.013 176.901 290.416 176.539 295.57C176.169 300.831 172.163 304.11 166.079 303.682ZM166.301 299.49C168.842 299.669 170.655 297.926 170.843 295.242C171.032 292.557 169.552 290.583 166.94 290.4C164.363 290.219 162.445 291.918 162.267 294.459C162.061 297.394 163.724 299.309 166.301 299.49ZM185.252 291.29C181.459 291.024 178.999 288.154 179.253 284.539C179.504 280.96 182.556 278.477 186.17 278.731C189.749 278.982 192.395 281.758 192.142 285.372C191.885 289.023 189.01 291.554 185.252 291.29ZM181.313 304.357L200.11 279.962L203.331 280.188L184.534 304.583L181.313 304.357ZM185.514 288.072C187.053 288.18 188.028 287.098 188.166 285.129C188.3 283.232 187.488 281.988 185.949 281.88C184.41 281.772 183.363 282.85 183.228 284.782C183.084 286.822 183.975 287.964 185.514 288.072ZM198.428 305.955C194.635 305.688 192.178 302.782 192.429 299.203C192.683 295.589 195.734 293.106 199.313 293.357C202.928 293.611 205.574 296.386 205.32 300.001C205.064 303.651 202.186 306.218 198.428 305.955ZM198.657 302.698C200.232 302.808 201.207 301.726 201.343 299.793C201.479 297.861 200.664 296.653 199.09 296.542C197.586 296.437 196.542 297.478 196.404 299.446C196.263 301.451 197.154 302.592 198.657 302.698Z" fill="#101010"/>
<g filter="url(#filter1_d_166_5494)">
<circle cx="249.131" cy="293.131" r="8.13083" fill="#101010"/>
<circle cx="249.131" cy="293.131" r="7.28971" stroke="#FFBF0F" stroke-width="1.68224"/>
</g>
<path d="M106.495 582.149L106.495 376.42C106.495 372.324 109.815 369.004 113.911 369.004L217 369.004" stroke="url(#paint2_linear_166_5494)" stroke-width="1.68224"/>
<path d="M222.476 406.523L169.831 404.741L169.831 391.69C169.831 387.129 166.134 383.432 161.573 383.432L146.35 383.432C142.719 383.432 139.775 380.489 139.775 376.857L139.775 368.888L216.066 368.888L222.476 406.523Z" stroke="url(#paint3_linear_166_5494)" stroke-width="1.68224"/>
<path d="M272.476 293.649L350.317 293.649L357.02 333" stroke="url(#paint4_linear_166_5494)" stroke-width="1.68224"/>
<path d="M24.0653 335.42V359.532C24.0653 361.7 25.8227 363.458 27.9905 363.458H61.6354" stroke="url(#paint5_linear_166_5494)" stroke-width="1.68224" stroke-linecap="round" stroke-linejoin="round"/>
<path d="M19.0186 342.71V366.822C19.0186 368.99 20.7759 370.747 22.9438 370.747H56.5886" stroke="url(#paint6_linear_166_5494)" stroke-width="1.68224" stroke-linecap="round" stroke-linejoin="round"/>
<path d="M209.112 222.149H233.884C234.899 222.149 235.876 222.543 236.607 223.248L258.458 244.299" stroke="url(#paint7_linear_166_5494)" stroke-width="1.68224" stroke-linecap="round"/>
<path d="M209.953 212.617H235.846C236.862 212.617 237.838 213.01 238.57 213.715L260.42 234.766" stroke="url(#paint8_linear_166_5494)" stroke-width="1.68224" stroke-linecap="round"/>
<path d="M63.7218 205.301L70.5372 198.676C70.6713 198.546 70.8851 198.547 71.0177 198.679L97.2929 224.807C98.3047 225.813 99.9658 225.718 100.857 224.604L107.261 216.602C107.439 216.379 107.796 216.459 107.862 216.737L115.492 248.878C115.551 249.125 115.331 249.347 115.084 249.291L83.1011 242.075C82.8433 242.016 82.7456 241.701 82.9255 241.507L89.5088 234.422C90.3926 233.471 90.3593 231.99 89.4336 231.079L63.7204 205.791L62.9996 206.524L63.7204 205.791C63.5833 205.656 63.584 205.435 63.7218 205.301Z" fill="#101010" stroke="url(#paint9_linear_166_5494)" stroke-width="2.05607"/>
<rect x="149.673" y="228.318" width="6.72896" height="6.72896" rx="3.36448" transform="rotate(90 149.673 228.318)" fill="#FFBF0F"/>
<rect x="273.158" y="290" width="7" height="7" rx="3.5" transform="rotate(90 273.158 290)" fill="#FFBF0F"/>
<path d="M29.5444 293.649L-48.2969 293.649L-55 333" stroke="url(#paint10_linear_166_5494)" stroke-width="1.68224"/>
<rect width="7" height="7" rx="3.5" transform="matrix(1.19249e-08 1 1 -1.19249e-08 28.8621 291)" fill="#FFBF0F"/>
</g>
<defs>
<filter id="filter0_d_166_5494" x="-10.7011" y="188.972" width="328.598" height="213.084" filterUnits="userSpaceOnUse" color-interpolation-filters="sRGB">
<feFlood flood-opacity="0" result="BackgroundImageFix"/>
<feColorMatrix in="SourceAlpha" type="matrix" values="0 0 0 0 0 0 0 0 0 0 0 0 0 0 0 0 0 0 127 0" result="hardAlpha"/>
<feOffset dx="2.24299" dy="2.15006"/>
<feGaussianBlur stdDeviation="22.4299"/>
<feComposite in2="hardAlpha" operator="out"/>
<feColorMatrix type="matrix" values="0 0 0 0 1 0 0 0 0 0.74902 0 0 0 0 0.0588235 0 0 0 0.04 0"/>
<feBlend mode="normal" in2="BackgroundImageFix" result="effect1_dropShadow_166_5494"/>
<feBlend mode="normal" in="SourceGraphic" in2="effect1_dropShadow_166_5494" result="shape"/>
</filter>
<filter id="filter1_d_166_5494" x="229.785" y="276.028" width="38.6916" height="38.6915" filterUnits="userSpaceOnUse" color-interpolation-filters="sRGB">
<feFlood flood-opacity="0" result="BackgroundImageFix"/>
<feColorMatrix in="SourceAlpha" type="matrix" values="0 0 0 0 0 0 0 0 0 0 0 0 0 0 0 0 0 0 127 0" result="hardAlpha"/>
<feOffset dy="2.24299"/>
<feGaussianBlur stdDeviation="5.60747"/>
<feComposite in2="hardAlpha" operator="out"/>
<feColorMatrix type="matrix" values="0 0 0 0 1 0 0 0 0 0.74902 0 0 0 0 0.0588235 0 0 0 0.3 0"/>
<feBlend mode="normal" in2="BackgroundImageFix" result="effect1_dropShadow_166_5494"/>
<feBlend mode="normal" in="SourceGraphic" in2="effect1_dropShadow_166_5494" result="shape"/>
</filter>
<linearGradient id="paint0_linear_166_5494" x1="143.504" y1="233.364" x2="201.409" y2="198.865" gradientUnits="userSpaceOnUse">
<stop stop-color="#FFBF0F" stop-opacity="0"/>
<stop offset="0.5" stop-color="#FFBF0F"/>
<stop offset="1" stop-color="#FFBF0F" stop-opacity="0"/>
</linearGradient>
<linearGradient id="paint1_linear_166_5494" x1="96.6819" y1="345.806" x2="53.93" y2="285.362" gradientUnits="userSpaceOnUse">
<stop stop-color="#FFBF0F"/>
<stop offset="1" stop-color="#40361C"/>
</linearGradient>
<linearGradient id="paint2_linear_166_5494" x1="117.149" y1="489.065" x2="230.981" y2="465.233" gradientUnits="userSpaceOnUse">
<stop offset="0.025" stop-color="#FFBF0F" stop-opacity="0"/>
<stop offset="0.33" stop-color="#FFBF0F"/>
<stop offset="0.619953" stop-color="#FFBF0F"/>
<stop offset="1" stop-color="#FFBF0F" stop-opacity="0"/>
</linearGradient>
<linearGradient id="paint3_linear_166_5494" x1="138.934" y1="384.273" x2="169.299" y2="402.551" gradientUnits="userSpaceOnUse">
<stop stop-color="#FFBF0F"/>
<stop offset="1" stop-color="#FFBF0F" stop-opacity="0"/>
</linearGradient>
<linearGradient id="paint4_linear_166_5494" x1="272.476" y1="295.612" x2="320.14" y2="300.658" gradientUnits="userSpaceOnUse">
<stop stop-color="#FFBF0F"/>
<stop offset="0.497374" stop-color="#FFBF0F" stop-opacity="0"/>
</linearGradient>
<linearGradient id="paint5_linear_166_5494" x1="24.2361" y1="335.42" x2="61.3805" y2="342.829" gradientUnits="userSpaceOnUse">
<stop stop-color="#FFBF0F" stop-opacity="0"/>
<stop offset="0.465" stop-color="#FFBF0F"/>
<stop offset="1" stop-color="#FFBF0F" stop-opacity="0"/>
</linearGradient>
<linearGradient id="paint6_linear_166_5494" x1="19.1893" y1="342.71" x2="56.3338" y2="350.119" gradientUnits="userSpaceOnUse">
<stop stop-color="#FFBF0F" stop-opacity="0"/>
<stop offset="0.465" stop-color="#FFBF0F"/>
<stop offset="1" stop-color="#FFBF0F" stop-opacity="0"/>
</linearGradient>
<linearGradient id="paint7_linear_166_5494" x1="209.112" y1="224.673" x2="251.168" y2="244.579" gradientUnits="userSpaceOnUse">
<stop stop-color="#FFBF0F" stop-opacity="0"/>
<stop offset="0.465" stop-color="#FFBF0F"/>
<stop offset="1" stop-color="#FFBF0F" stop-opacity="0"/>
</linearGradient>
<linearGradient id="paint8_linear_166_5494" x1="209.673" y1="212.617" x2="253.13" y2="235.047" gradientUnits="userSpaceOnUse">
<stop stop-color="#FFBF0F" stop-opacity="0"/>
<stop offset="0.465" stop-color="#FFBF0F"/>
<stop offset="1" stop-color="#FFBF0F" stop-opacity="0"/>
</linearGradient>
<linearGradient id="paint9_linear_166_5494" x1="104" y1="224" x2="85.0936" y2="189.768" gradientUnits="userSpaceOnUse">
<stop stop-color="#FFBF0F"/>
<stop offset="0.882699" stop-color="#101010"/>
</linearGradient>
<linearGradient id="paint10_linear_166_5494" x1="29.5444" y1="295.612" x2="-18.1191" y2="300.658" gradientUnits="userSpaceOnUse">
<stop stop-color="#FFBF0F"/>
<stop offset="0.497374" stop-color="#FFBF0F" stop-opacity="0"/>
</linearGradient>
<clipPath id="clip0_166_5494">
<rect width="300" height="600" fill="white"/>
</clipPath>
</defs>
</svg>
