<svg width="300" height="250" viewBox="0 0 300 250" fill="none" xmlns="http://www.w3.org/2000/svg">
<g clip-path="url(#clip0_153_2221)">
<rect width="300" height="250" fill="#101010"/>
<path d="M25.848 110V92.84H29.736V100.232L35.736 92.816H39.864L33.072 100.952L40.2 110H35.664L29.736 102.296V110H25.848ZM45.3279 110H41.8959V97.448H45.3279V105.824L50.1759 97.448H53.6079V110H50.1759V101.624L45.3279 110ZM62.5416 110.264C58.5096 110.264 55.9416 107.936 55.9416 102.416V101.624C55.9416 95.672 58.2456 92.12 63.4056 91.88L64.3416 91.856C66.1896 91.76 67.3176 91.64 67.9896 91.4V94.04C67.2936 94.352 66.4296 94.592 64.2456 94.712L63.4536 94.736C60.2376 94.904 58.9176 96.872 58.5816 99.992H58.7256C59.5416 98.528 60.9096 97.472 63.3576 97.472C66.8136 97.472 69.1656 100.136 69.1656 103.712V103.88C69.1656 107.84 66.3096 110.264 62.5416 110.264ZM62.5656 107.624C64.5096 107.624 65.6376 106.256 65.6376 103.904V103.76C65.6376 101.48 64.6056 100.112 62.6616 100.112C60.6696 100.112 59.4936 101.48 59.4936 103.808V103.928C59.4936 106.232 60.5976 107.624 62.5656 107.624ZM77.2575 110.264C73.4655 110.264 70.7055 107.888 70.7055 103.88V103.688C70.7055 99.728 73.5135 97.16 77.1615 97.16C80.4015 97.16 83.2815 99.056 83.2815 103.544V104.504H74.2335C74.3295 106.592 75.4575 107.792 77.3535 107.792C78.9615 107.792 79.7535 107.096 79.9695 106.04H83.2575C82.8495 108.752 80.6895 110.264 77.2575 110.264ZM74.2815 102.368H79.8975C79.7775 100.472 78.8175 99.56 77.1615 99.56C75.6015 99.56 74.5455 100.592 74.2815 102.368ZM92.0154 107.552C93.9354 107.552 94.9914 106.256 94.9914 103.808V103.616C94.9914 101.072 93.7434 99.824 91.9914 99.824C90.1674 99.824 88.9194 101.096 88.9194 103.616V103.808C88.9194 106.328 90.1194 107.552 92.0154 107.552ZM85.5594 114.272V97.448H89.0394V99.416C89.7354 98.216 91.1994 97.16 93.0474 97.16C96.1194 97.16 98.5194 99.44 98.5194 103.592V103.784C98.5194 107.936 96.1674 110.264 93.0474 110.264C91.1034 110.264 89.6874 109.304 89.0394 108.08V114.272H85.5594ZM108.713 110V99.92H104.297V110H100.865V97.448H112.145V110H108.713ZM121.063 110.264C117.319 110.264 114.463 107.768 114.463 103.856V103.664C114.463 99.728 117.319 97.16 121.087 97.16C124.855 97.16 127.687 99.68 127.687 103.592V103.784C127.687 107.744 124.831 110.264 121.063 110.264ZM121.087 107.624C123.031 107.624 124.159 106.184 124.159 103.808V103.64C124.159 101.24 123.031 99.8 121.087 99.8C119.167 99.8 118.015 101.192 118.015 103.592V103.784C118.015 106.184 119.119 107.624 121.087 107.624ZM138.109 110V104.84H133.453V110H130.021V97.448H133.453V102.368H138.109V97.448H141.541V110H138.109ZM150.429 110.264C146.637 110.264 143.877 107.888 143.877 103.88V103.688C143.877 99.728 146.685 97.16 150.333 97.16C153.573 97.16 156.453 99.056 156.453 103.544V104.504H147.405C147.501 106.592 148.629 107.792 150.525 107.792C152.133 107.792 152.925 107.096 153.141 106.04H156.429C156.021 108.752 153.861 110.264 150.429 110.264ZM147.453 102.368H153.069C152.949 100.472 151.989 99.56 150.333 99.56C148.773 99.56 147.717 100.592 147.453 102.368ZM162.643 104.384C162.523 105.704 162.331 106.736 161.947 107.528H166.243V99.896H162.883C162.859 101.36 162.787 103.04 162.643 104.384ZM160.531 110L160.483 113.048H157.483V107.528H158.203C159.019 107.192 159.379 106.04 159.595 104.12C159.787 102.512 159.883 100.112 159.883 97.448H169.651V107.528H171.427V113.048H168.427L168.379 110H160.531ZM178.976 110.264C175.184 110.264 172.424 107.888 172.424 103.88V103.688C172.424 99.728 175.232 97.16 178.88 97.16C182.12 97.16 185 99.056 185 103.544V104.504H175.952C176.048 106.592 177.176 107.792 179.072 107.792C180.68 107.792 181.472 107.096 181.688 106.04H184.976C184.568 108.752 182.408 110.264 178.976 110.264ZM176 102.368H181.616C181.496 100.472 180.536 99.56 178.88 99.56C177.32 99.56 176.264 100.592 176 102.368ZM191.427 104.84C191.067 108.32 190.131 110.24 187.611 110.24C186.771 110.24 186.411 110.048 186.411 110.048V107.288C186.411 107.288 186.579 107.384 186.939 107.384C187.851 107.384 188.259 106.208 188.427 104.144C188.595 102.512 188.667 97.448 188.667 97.448H198.339V110H194.907V99.92H191.667C191.643 101.528 191.571 103.376 191.427 104.84ZM201.458 110V97.448H204.89V101.432H207.17C210.098 101.432 212.018 102.992 212.018 105.752V105.824C212.018 108.584 210.194 110 207.074 110H201.458ZM204.89 107.576H206.402C207.842 107.576 208.514 107.024 208.514 105.8V105.728C208.514 104.456 207.818 103.856 206.402 103.856H204.89V107.576ZM222.32 110V104.84H217.664V110H214.232V97.448H217.664V102.368H222.32V97.448H225.752V110H222.32ZM232.312 110H228.88V97.448H232.312V105.824L237.16 97.448H240.592V110H237.16V101.624L232.312 110ZM251.254 110L247.078 104.072V110H243.622V97.448H247.078V102.824L251.134 97.448H254.83L250.246 103.184L255.19 110H251.254ZM33.648 139V133.84H28.992V139H25.56V126.448H28.992V131.368H33.648V126.448H37.08V139H33.648ZM44.6004 136.84C46.1364 136.84 47.3124 136 47.3124 134.608V133.552H45.9684C43.9524 133.552 42.7764 133.984 42.7764 135.328C42.7764 136.24 43.3284 136.84 44.6004 136.84ZM43.5684 139.264C41.2884 139.264 39.3684 138.16 39.3684 135.52C39.3684 132.592 42.0564 131.488 45.8964 131.488H47.3124V130.984C47.3124 129.496 46.8564 128.68 45.2724 128.68C43.9044 128.68 43.2804 129.376 43.1364 130.456H39.8484C40.0644 127.48 42.4164 126.16 45.4884 126.16C48.5604 126.16 50.7444 127.408 50.7444 130.816V139H47.3604V137.488C46.6404 138.496 45.5364 139.264 43.5684 139.264ZM59.3636 139V121.84H65.2916C69.4676 121.84 71.8436 123.688 71.8436 127.312V127.408C71.8436 131.032 69.3236 132.76 65.4116 132.76H63.2276V139H59.3636ZM63.2276 130.048H65.1956C67.0916 130.048 68.0996 129.136 68.0996 127.432V127.336C68.0996 125.512 67.0436 124.792 65.1956 124.792H63.2276V130.048ZM87.1071 133.696C87.1071 137.056 84.9231 139 80.6751 139H74.3871V121.84H85.5711V124.864H78.2511L78.2271 128.464H80.7951C84.7551 128.464 87.1071 130.168 87.1071 133.6V133.696ZM78.2271 136.048H80.5311C82.4271 136.048 83.3871 135.232 83.3871 133.672V133.576C83.3871 132.04 82.4271 131.2 80.4351 131.2H78.2271V136.048ZM89.7152 139V121.84H93.6032V129.232L99.6032 121.816H103.731L96.9392 129.952L104.067 139H99.5312L93.6032 131.296V139H89.7152ZM111.489 139V121.84H117.417C121.593 121.84 123.969 123.688 123.969 127.312V127.408C123.969 131.032 121.449 132.76 117.537 132.76H115.353V139H111.489ZM115.353 130.048H117.321C119.217 130.048 120.225 129.136 120.225 127.432V127.336C120.225 125.512 119.169 124.792 117.321 124.792H115.353V130.048ZM126.2 139V126.448H129.68V128.848C130.472 127.168 131.696 126.28 133.736 126.256V129.496C131.168 129.472 129.68 130.312 129.68 132.712V139H126.2ZM141.618 139.264C137.874 139.264 135.018 136.768 135.018 132.856V132.664C135.018 128.728 137.874 126.16 141.642 126.16C145.41 126.16 148.242 128.68 148.242 132.592V132.784C148.242 136.744 145.386 139.264 141.618 139.264ZM141.642 136.624C143.586 136.624 144.714 135.184 144.714 132.808V132.64C144.714 130.24 143.586 128.8 141.642 128.8C139.722 128.8 138.57 130.192 138.57 132.592V132.784C138.57 135.184 139.674 136.624 141.642 136.624Z" fill="white"/>
<path d="M26.954 159.486C26.884 160.508 26.716 161.39 26.296 161.978H31.168V153.984H27.248C27.192 155.258 27.094 157.554 26.954 159.486ZM25.218 163L25.148 164.82H24.14V161.978H24.77C25.484 161.754 25.708 160.858 25.862 159.388C26.1 156.616 26.17 152.99 26.17 152.99H32.358V161.978H33.478V164.82H32.47L32.4 163H25.218ZM37.9757 163.126C35.8897 163.126 34.3917 161.544 34.3917 159.402V159.29C34.3917 157.092 35.9177 155.552 37.9897 155.552C40.0617 155.552 41.5877 157.078 41.5877 159.276V159.388C41.5877 161.6 40.0617 163.126 37.9757 163.126ZM37.9897 162.16C39.4597 162.16 40.3837 161.054 40.3837 159.402V159.304C40.3837 157.61 39.4457 156.518 37.9897 156.518C36.5197 156.518 35.5957 157.61 35.5957 159.29V159.402C35.5957 161.068 36.5057 162.16 37.9897 162.16ZM46.42 158.702V157.722H52.678V158.702H46.42ZM55.2198 163L58.7058 153.97H53.6238V152.99H60.2178V153.158L56.4658 163H55.2198ZM64.7642 163.126C62.0342 163.126 61.1662 161.082 61.1662 158.576V158.338C61.1662 154.74 62.7902 152.864 65.0862 152.864C66.6402 152.864 67.7462 153.676 68.0122 155.286H66.8502C66.6262 154.362 66.1222 153.858 65.0022 153.858C63.4902 153.858 62.4262 155.216 62.3702 157.862C62.8462 157.05 63.7842 156.504 64.9462 156.504C66.9342 156.504 68.2222 157.946 68.2222 159.78C68.2222 161.782 66.8782 163.126 64.7642 163.126ZM64.7642 162.174C66.0802 162.174 66.9762 161.25 66.9762 159.836C66.9762 158.394 66.1082 157.456 64.7502 157.456C63.4062 157.456 62.4542 158.366 62.4542 159.668C62.4542 161.306 63.4202 162.174 64.7642 162.174ZM71.7661 157.638C70.5761 157.638 69.4701 156.658 69.4701 155.3C69.4701 153.914 70.5481 152.906 71.7661 152.906C73.0121 152.906 74.0621 153.914 74.0621 155.272C74.0621 156.658 72.9701 157.638 71.7661 157.638ZM70.8841 163L77.0021 152.99H78.0661L71.9481 163H70.8841ZM71.7661 156.728C72.5221 156.728 72.9981 156.21 72.9981 155.272C72.9981 154.376 72.5221 153.816 71.7661 153.816C71.0241 153.816 70.5341 154.334 70.5341 155.286C70.5341 156.238 71.0241 156.728 71.7661 156.728ZM77.1981 163.112C76.0081 163.112 74.9021 162.132 74.9021 160.774C74.9021 159.388 75.9801 158.38 77.1981 158.38C78.4441 158.38 79.4941 159.388 79.4941 160.746C79.4941 162.132 78.4021 163.112 77.1981 163.112ZM77.1981 162.202C77.9541 162.202 78.4301 161.684 78.4301 160.746C78.4301 159.85 77.9541 159.29 77.1981 159.29C76.4561 159.29 75.9661 159.808 75.9661 160.76C75.9661 161.712 76.4561 162.202 77.1981 162.202ZM89.6137 163V159.738H86.0157V163H84.8537V155.678H86.0157V158.758H89.6137V155.678H90.7757V163H89.6137ZM95.0712 162.202C96.3032 162.202 97.2412 161.572 97.2412 160.438V159.528H96.2332C94.7632 159.528 93.6852 159.892 93.6852 160.97C93.6852 161.726 94.0492 162.202 95.0712 162.202ZM94.9592 163.126C93.6012 163.126 92.5232 162.468 92.5232 160.97C92.5232 159.276 94.3152 158.702 96.1912 158.702H97.2412V158.17C97.2412 157.008 96.7932 156.518 95.6732 156.518C94.6652 156.518 94.1052 156.938 93.9932 157.834H92.8312C92.9852 156.168 94.3152 155.552 95.7292 155.552C97.1292 155.552 98.4032 156.126 98.4032 158.17V163H97.2412V162.076C96.6952 162.762 96.0372 163.126 94.9592 163.126ZM109.011 163V156.658H105.553V163H104.391V155.678H110.173V163H109.011ZM115.564 163.126C113.478 163.126 111.98 161.544 111.98 159.402V159.29C111.98 157.092 113.506 155.552 115.578 155.552C117.65 155.552 119.176 157.078 119.176 159.276V159.388C119.176 161.6 117.65 163.126 115.564 163.126ZM115.578 162.16C117.048 162.16 117.972 161.054 117.972 159.402V159.304C117.972 157.61 117.034 156.518 115.578 156.518C114.108 156.518 113.184 157.61 113.184 159.29V159.402C113.184 161.068 114.094 162.16 115.578 162.16ZM122.198 160.172C122.1 161.026 121.96 161.614 121.722 162.02H125.152V156.63H122.464C122.422 157.596 122.324 159.08 122.198 160.172ZM120.826 163L120.742 164.778H119.804V162.02H120.322C120.91 161.866 121.008 161.04 121.134 160.102C121.344 158.394 121.456 155.678 121.456 155.678H126.286V162.02H127.406V164.778H126.468L126.384 163H120.826ZM133.484 163V156.658H130.026V163H128.864V155.678H134.646V163H133.484ZM138.16 163H136.998V155.678H138.16V161.32L141.898 155.678H143.06V163H141.898V157.358L138.16 163ZM148.308 163.126C146.264 163.126 144.724 161.684 144.724 159.416V159.304C144.724 157.064 146.32 155.552 148.28 155.552C149.806 155.552 151.234 156.252 151.458 158.114H150.31C150.128 156.952 149.288 156.518 148.28 156.518C146.95 156.518 145.928 157.582 145.928 159.304V159.416C145.928 161.208 146.908 162.16 148.322 162.16C149.358 162.16 150.296 161.558 150.422 160.368H151.5C151.346 161.95 150.072 163.126 148.308 163.126ZM157.664 163L154.416 159.262V163H153.254V155.678H154.416V159.094L157.454 155.678H158.812L155.676 159.122L159.078 163H157.664ZM161.131 165.548L162.517 162.244L159.647 155.678H160.893L163.133 160.928L165.163 155.678H166.353L162.307 165.548H161.131ZM172.75 163H171.588V155.678H172.75V161.32L176.488 155.678H177.65V163H176.488V157.358L172.75 163ZM186.603 163.126C184.517 163.126 183.019 161.544 183.019 159.402V159.29C183.019 157.092 184.545 155.552 186.617 155.552C188.689 155.552 190.215 157.078 190.215 159.276V159.388C190.215 161.6 188.689 163.126 186.603 163.126ZM186.617 162.16C188.087 162.16 189.011 161.054 189.011 159.402V159.304C189.011 157.61 188.073 156.518 186.617 156.518C185.147 156.518 184.223 157.61 184.223 159.29V159.402C184.223 161.068 185.133 162.16 186.617 162.16ZM196.634 163V156.658H193.176V163H192.014V155.678H197.796V163H196.634ZM207.051 164.778H206.113L206.029 163H200.149V155.678H201.311V162.02H204.769V155.678H205.931V162.02H207.051V164.778ZM209.664 163H208.502V155.678H209.664V161.32L213.402 155.678H214.564V163H213.402V157.358L209.664 163ZM217.936 163H216.774V155.678H217.936V161.32L221.674 155.678H222.836V163H221.674V157.358L217.936 163Z" fill="white"/>
<rect x="24" y="184" width="252" height="44" rx="4" fill="#FFBF0F"/>
<path d="M60.64 212V197.7H63.3V204.18L68.78 197.68H71.64L65.72 204.52L71.94 212H68.8L63.3 205.32V212H60.64ZM73.8852 215.58L75.7852 210.94L71.6452 201.54H74.2652L77.0452 208.28L79.6052 201.54H81.9652L76.2652 215.58H73.8852ZM90.3398 212V203.34H86.1998V212H83.7798V201.54H92.7598V212H90.3398ZM98.0553 212H95.6353V201.54H98.0553V208.94L102.575 201.54H104.975V212H102.575V204.6L98.0553 212ZM115.584 201.54V203.34H112.384V212H109.964V203.34H106.764V201.54H115.584ZM117.471 212V201.54H119.891V204.98H121.771C124.111 204.98 125.791 206.18 125.791 208.52V208.58C125.791 210.94 124.151 212 121.711 212H117.471ZM119.891 210.26H121.411C122.771 210.26 123.351 209.7 123.351 208.56V208.5C123.351 207.32 122.731 206.74 121.411 206.74H119.891V210.26ZM137.149 212.2C134.149 212.2 131.869 210.24 131.869 206.9V206.74C131.869 203.42 134.229 201.32 137.149 201.32C139.469 201.32 141.649 202.36 141.929 205.24H139.589C139.389 203.84 138.469 203.26 137.189 203.26C135.529 203.26 134.349 204.54 134.349 206.7V206.86C134.349 209.14 135.469 210.34 137.249 210.34C138.529 210.34 139.629 209.58 139.769 208.1H141.989C141.809 210.5 139.989 212.2 137.149 212.2ZM148.733 212.2C145.653 212.2 143.373 210.06 143.373 206.88V206.72C143.373 203.48 145.673 201.32 148.753 201.32C151.813 201.32 154.113 203.46 154.113 206.66V206.82C154.113 210.08 151.813 212.2 148.733 212.2ZM148.753 210.32C150.553 210.32 151.633 208.98 151.633 206.84V206.7C151.633 204.54 150.553 203.22 148.753 203.22C146.953 203.22 145.853 204.52 145.853 206.68V206.84C145.853 208.98 146.913 210.32 148.753 210.32ZM165.645 212.2C162.645 212.2 160.365 210.24 160.365 206.9V206.74C160.365 203.42 162.725 201.32 165.645 201.32C167.965 201.32 170.145 202.36 170.425 205.24H168.085C167.885 203.84 166.965 203.26 165.685 203.26C164.025 203.26 162.845 204.54 162.845 206.7V206.86C162.845 209.14 163.965 210.34 165.745 210.34C167.025 210.34 168.125 209.58 168.265 208.1H170.485C170.305 210.5 168.485 212.2 165.645 212.2ZM178.909 212L174.989 206.88V212H172.569V201.54H174.989V206.18L178.729 201.54H181.369L177.309 206.38L181.709 212H178.909ZM185.79 212H183.37V201.54H185.79V208.94L190.31 201.54H192.71V212H190.31V204.6L185.79 212ZM198.299 207.56C198.179 208.72 197.999 209.56 197.679 210.2H201.739V203.32H198.559C198.519 204.6 198.419 206.28 198.299 207.56ZM196.459 212L196.379 214.54H194.319V210.2H194.979C195.719 209.94 195.959 208.9 196.139 207.4C196.339 205.62 196.459 202.92 196.459 201.54H204.139V210.2H205.659V214.54H203.599L203.519 212H196.459ZM213.753 212L209.833 206.88V212H207.413V201.54H209.833V206.18L213.573 201.54H216.213L212.153 206.38L216.553 212H213.753ZM222.366 212.2C219.286 212.2 217.006 210.06 217.006 206.88V206.72C217.006 203.48 219.306 201.32 222.386 201.32C225.446 201.32 227.746 203.46 227.746 206.66V206.82C227.746 210.08 225.446 212.2 222.366 212.2ZM222.386 210.32C224.186 210.32 225.266 208.98 225.266 206.84V206.7C225.266 204.54 224.186 203.22 222.386 203.22C220.586 203.22 219.486 204.52 219.486 206.68V206.84C219.486 208.98 220.546 210.32 222.386 210.32ZM234.552 199.86C232.872 199.86 231.752 198.72 231.652 197.06H233.472C233.532 197.76 233.832 198.36 234.552 198.36C235.292 198.36 235.632 197.76 235.712 197.06H237.512C237.412 198.72 236.212 199.86 234.552 199.86ZM232.352 212H229.932V201.54H232.352V208.94L236.872 201.54H239.272V212H236.872V204.6L232.352 212Z" fill="#101010"/>
<path d="M24 24.0796V41.8478H41.7533V24.0796H24ZM30.8189 37.8838L37.7974 30.902V37.8838H30.8189ZM27.9559 35.1413V28.0436H35.0505L27.9559 35.1413Z" fill="white"/>
<path d="M47.5134 41.7832H52.5521V35.8306H54.454C58.8258 35.8306 61.3204 33.83 61.3204 30.1251V30.0263C61.3204 26.272 59.0728 24.1231 54.2317 24.1231H47.5134V41.7832ZM52.5521 32.3727V27.9268H54.0341C55.6148 27.9268 56.504 28.5443 56.504 30.051V30.1498C56.504 31.607 55.6395 32.3727 54.0094 32.3727H52.5521Z" fill="white"/>
<path d="M77.68 36.1023V36.0035C77.68 32.4962 75.1853 30.5697 70.8135 30.5697H68.9116L68.9363 28.0256H76.0251V24.1231H63.873V41.7832H70.5912C75.4323 41.7832 77.68 39.6591 77.68 36.1023ZM68.9116 37.9795V34.0276H70.3689C71.9991 34.0276 72.8636 34.7192 72.8636 35.9788V36.0776C72.8636 37.3867 71.9744 37.9795 70.3936 37.9795H68.9116Z" fill="white"/>
<path d="M80.136 41.7832H85.2241V34.3981L90.3122 41.7832H96.166L89.3489 32.3233L95.8202 24.1231H90.5345L85.2241 31.1131V24.1231H80.136V41.7832Z" fill="white"/>
<path d="M103.424 41.7832H108.463V35.8306H110.364C114.736 35.8306 117.231 33.83 117.231 30.1251V30.0263C117.231 26.272 114.983 24.1231 110.142 24.1231H103.424V41.7832ZM108.463 32.3727V27.9268H109.945C111.525 27.9268 112.415 28.5443 112.415 30.051V30.1498C112.415 31.607 111.55 32.3727 109.92 32.3727H108.463Z" fill="white"/>
<path d="M119.388 41.7832H123.809V35.6578C123.809 33.583 125.291 32.7432 127.984 32.8173V28.6925C125.983 28.6678 124.625 29.5076 123.809 31.4341V28.8654H119.388V41.7832Z" fill="white"/>
<path d="M136.452 42.0796C140.429 42.0796 143.516 39.5603 143.516 35.3614V35.1638C143.516 31.0637 140.453 28.5196 136.477 28.5196C132.475 28.5196 129.388 31.1378 129.388 35.2873V35.4849C129.388 39.6591 132.475 42.0796 136.452 42.0796ZM136.477 38.7946C134.772 38.7946 133.908 37.5843 133.908 35.3614V35.1638C133.908 32.9902 134.822 31.8293 136.477 31.8293C138.156 31.8293 139.021 33.0396 139.021 35.2132V35.4108C139.021 37.5596 138.131 38.7946 136.477 38.7946Z" fill="white"/>
<rect x="212.936" y="16" width="76.8493" height="26.8493" rx="3.93971" transform="rotate(12.7721 212.936 16)" fill="#FFBF0F"/>
<path d="M217.807 32.7856C217.543 33.6008 217.274 34.2242 216.919 34.6687L219.628 35.2828L220.719 30.47L218.6 29.9897C218.376 30.9095 218.09 31.9586 217.807 32.7856ZM215.673 36.0252L215.207 37.9404L213.315 37.5116L214.104 34.0306L214.558 34.1335C215.12 34.0383 215.512 33.3633 215.923 32.1834C216.274 31.1968 216.677 29.697 217.058 28.0171L223.218 29.4134L221.777 35.77L222.897 36.0239L222.108 39.5049L220.216 39.076L220.622 37.1471L215.673 36.0252ZM227.153 38.8026C224.792 38.2674 223.348 36.2852 223.907 33.8182L223.934 33.6971C224.497 31.215 226.665 30.0039 229.041 30.5425C231.417 31.0811 232.843 33.0751 232.284 35.5421L232.256 35.6632C231.69 38.1604 229.529 39.3413 227.153 38.8026ZM227.546 37.1412C228.771 37.4191 229.689 36.6723 230.028 35.174L230.052 35.068C230.395 33.5545 229.89 32.4852 228.664 32.2073C227.453 31.9329 226.528 32.646 226.185 34.1595L226.157 34.2805C225.814 35.794 226.304 36.8599 227.546 37.1412ZM237.801 36.5169L238.302 34.3076L243.22 35.4225L242.719 37.6318L237.801 36.5169ZM243.541 42.3425L250.272 32.0726L244.221 30.7008L244.791 28.1841L254.743 30.4399L254.664 30.7857L246.711 43.0611L243.541 42.3425ZM257.666 45.7665C253.516 44.8259 252.653 41.6814 253.503 37.9352L253.581 37.5894C254.635 32.9403 257.74 30.9173 261.101 31.6794C263.829 32.2978 265.267 33.9768 265.004 36.5632L262.122 35.9099C262.134 34.9635 261.8 34.3018 260.609 34.0318C258.899 33.6443 257.503 34.9032 256.785 37.7098C257.65 36.8353 258.844 36.3789 260.497 36.7534C263.09 37.3413 264.647 39.4717 264.02 42.2381C263.38 45.0622 260.932 46.5068 257.666 45.7665ZM258.137 43.5101C259.501 43.8193 260.63 43.025 260.957 41.5842C261.283 40.1433 260.645 38.9484 259.243 38.6305C257.86 38.3169 256.677 39.0789 256.368 40.4429C256.011 42.0182 256.754 43.1965 258.137 43.5101ZM269.106 40.6441C267.07 40.1825 265.975 38.4194 266.415 36.4791C266.85 34.5579 268.714 33.4655 270.654 33.9053C272.575 34.3408 273.779 36.0681 273.339 38.0084C272.895 39.9679 271.123 41.1013 269.106 40.6441ZM265.877 47.4056L278.116 35.7382L279.845 36.1301L267.606 47.7976L265.877 47.4056ZM269.517 38.9194C270.343 39.1067 270.963 38.6008 271.203 37.5442C271.433 36.526 271.097 35.7832 270.271 35.5959C269.445 35.4087 268.787 35.9058 268.551 36.9432C268.303 38.0383 268.691 38.7322 269.517 38.9194ZM275.031 49.7029C272.995 49.2413 271.904 47.459 272.339 45.5379C272.779 43.5976 274.643 42.5051 276.564 42.9406C278.504 43.3804 279.708 45.1077 279.269 47.048C278.824 49.0075 277.048 50.1602 275.031 49.7029ZM275.427 47.9547C276.273 48.1463 276.892 47.6404 277.127 46.603C277.363 45.5656 277.022 44.842 276.176 44.6504C275.369 44.4675 274.716 44.9454 274.476 46.0021C274.232 47.0779 274.62 47.7718 275.427 47.9547Z" fill="#101010"/>
<g filter="url(#filter0_d_153_2221)">
<path d="M-7 -14L138.582 -14C140.791 -14 142.582 -12.2091 142.582 -10V14C142.582 16.2091 144.373 18 146.582 18L361 18" stroke="url(#paint0_linear_153_2221)" stroke-width="1.2" shape-rendering="crispEdges"/>
</g>
<g filter="url(#filter1_d_153_2221)">
<path d="M279 -23L279 31.3373C279 33.5464 280.791 35.3373 283 35.3373L298.465 35.3373C300.674 35.3373 302.465 37.1281 302.465 39.3373L302.465 133.231" stroke="url(#paint1_linear_153_2221)" stroke-width="1.2" shape-rendering="crispEdges"/>
</g>
<rect x="282" y="15" width="6" height="6" rx="3" transform="rotate(90 282 15)" fill="#FFBF0F"/>
<g filter="url(#filter2_d_153_2221)">
<path d="M-5 71.4736L108.11 71.4736L323 71.4736" stroke="url(#paint2_linear_153_2221)" stroke-width="1.2" shape-rendering="crispEdges"/>
</g>
<rect width="6" height="6" rx="3" transform="matrix(1.19249e-08 1 1 -1.19249e-08 193 68.0914)" fill="#FFBF0F"/>
<rect width="6" height="6" rx="3" transform="matrix(1.19249e-08 1 1 -1.19249e-08 276 136)" fill="#FFBF0F"/>
<g filter="url(#filter3_d_153_2221)">
<path d="M279.853 61L279.044 135.284C279.02 137.51 280.818 139.328 283.044 139.328H306.195C311.473 139.328 315.384 144.23 314.213 149.376L303.318 197.231" stroke="url(#paint3_linear_153_2221)" stroke-width="1.2" shape-rendering="crispEdges"/>
</g>
<path d="M303.536 97.1563L298.329 102.583C298.146 102.773 297.844 102.782 297.65 102.602L276.153 82.6649C275.418 81.9834 274.255 82.0902 273.656 82.8939L268.813 89.3983C268.572 89.7221 268.064 89.6264 267.957 89.2372L261.039 64.0309C260.944 63.6853 261.244 63.3599 261.596 63.4266L287.085 68.2531C287.452 68.3227 287.606 68.7641 287.361 69.0465L282.35 74.8302C281.753 75.5193 281.813 76.5583 282.485 77.1746L303.514 96.4637C303.714 96.6475 303.724 96.9602 303.536 97.1563Z" fill="#101010" stroke="url(#paint4_linear_153_2221)" stroke-width="1.2"/>
</g>
<defs>
<filter id="filter0_d_153_2221" x="-38.7263" y="-46.4723" width="438.503" height="103.703" filterUnits="userSpaceOnUse" color-interpolation-filters="sRGB">
<feFlood flood-opacity="0" result="BackgroundImageFix"/>
<feColorMatrix in="SourceAlpha" type="matrix" values="0 0 0 0 0 0 0 0 0 0 0 0 0 0 0 0 0 0 127 0" result="hardAlpha"/>
<feOffset dx="3.52514" dy="3.37909"/>
<feGaussianBlur stdDeviation="17.6257"/>
<feComposite in2="hardAlpha" operator="out"/>
<feColorMatrix type="matrix" values="0 0 0 0 1 0 0 0 0 0.74902 0 0 0 0 0.0588235 0 0 0 0.4 0"/>
<feBlend mode="normal" in2="BackgroundImageFix" result="effect1_dropShadow_153_2221"/>
<feBlend mode="normal" in="SourceGraphic" in2="effect1_dropShadow_153_2221" result="shape"/>
</filter>
<filter id="filter1_d_153_2221" x="263.599" y="-37.869" width="57.5563" height="189.122" filterUnits="userSpaceOnUse" color-interpolation-filters="sRGB">
<feFlood flood-opacity="0" result="BackgroundImageFix"/>
<feColorMatrix in="SourceAlpha" type="matrix" values="0 0 0 0 0 0 0 0 0 0 0 0 0 0 0 0 0 0 127 0" result="hardAlpha"/>
<feOffset dx="1.64454" dy="1.5764"/>
<feGaussianBlur stdDeviation="8.22269"/>
<feComposite in2="hardAlpha" operator="out"/>
<feColorMatrix type="matrix" values="0 0 0 0 1 0 0 0 0 0.74902 0 0 0 0 0.0588235 0 0 0 0.4 0"/>
<feBlend mode="normal" in2="BackgroundImageFix" result="effect1_dropShadow_153_2221"/>
<feBlend mode="normal" in="SourceGraphic" in2="effect1_dropShadow_153_2221" result="shape"/>
</filter>
<filter id="filter2_d_153_2221" x="-36.7263" y="39.0014" width="398.503" height="71.7027" filterUnits="userSpaceOnUse" color-interpolation-filters="sRGB">
<feFlood flood-opacity="0" result="BackgroundImageFix"/>
<feColorMatrix in="SourceAlpha" type="matrix" values="0 0 0 0 0 0 0 0 0 0 0 0 0 0 0 0 0 0 127 0" result="hardAlpha"/>
<feOffset dx="3.52514" dy="3.37909"/>
<feGaussianBlur stdDeviation="17.6257"/>
<feComposite in2="hardAlpha" operator="out"/>
<feColorMatrix type="matrix" values="0 0 0 0 1 0 0 0 0 0.74902 0 0 0 0 0.0588235 0 0 0 0.4 0"/>
<feBlend mode="normal" in2="BackgroundImageFix" result="effect1_dropShadow_153_2221"/>
<feBlend mode="normal" in="SourceGraphic" in2="effect1_dropShadow_153_2221" result="shape"/>
</filter>
<filter id="filter3_d_153_2221" x="263.643" y="46.1245" width="69.4684" height="169.262" filterUnits="userSpaceOnUse" color-interpolation-filters="sRGB">
<feFlood flood-opacity="0" result="BackgroundImageFix"/>
<feColorMatrix in="SourceAlpha" type="matrix" values="0 0 0 0 0 0 0 0 0 0 0 0 0 0 0 0 0 0 127 0" result="hardAlpha"/>
<feOffset dx="1.64454" dy="1.5764"/>
<feGaussianBlur stdDeviation="8.22269"/>
<feComposite in2="hardAlpha" operator="out"/>
<feColorMatrix type="matrix" values="0 0 0 0 1 0 0 0 0 0.74902 0 0 0 0 0.0588235 0 0 0 0.4 0"/>
<feBlend mode="normal" in2="BackgroundImageFix" result="effect1_dropShadow_153_2221"/>
<feBlend mode="normal" in="SourceGraphic" in2="effect1_dropShadow_153_2221" result="shape"/>
</filter>
<linearGradient id="paint0_linear_153_2221" x1="73.5704" y1="10.5333" x2="301.72" y2="-46.48" gradientUnits="userSpaceOnUse">
<stop offset="0.338914" stop-color="#FFBF0F" stop-opacity="0"/>
<stop offset="0.68335" stop-color="#FFBF0F"/>
<stop offset="1" stop-color="#FFBF0F" stop-opacity="0"/>
</linearGradient>
<linearGradient id="paint1_linear_153_2221" x1="296" y1="-16" x2="282.074" y2="106.807" gradientUnits="userSpaceOnUse">
<stop offset="0.02" stop-color="#FFBF0F" stop-opacity="0"/>
<stop offset="0.334654" stop-color="#FFBF0F"/>
<stop offset="0.503708" stop-color="#FFBF0F"/>
<stop offset="0.651498" stop-color="#FFBF0F" stop-opacity="0.465923"/>
<stop offset="0.810631" stop-color="#FFBF0F" stop-opacity="0"/>
</linearGradient>
<linearGradient id="paint2_linear_153_2221" x1="12.5" y1="71.0914" x2="243.418" y2="181.805" gradientUnits="userSpaceOnUse">
<stop stop-color="#FFBF0F" stop-opacity="0"/>
<stop offset="0.227131" stop-color="#FFBF0F"/>
<stop offset="0.600964" stop-color="#FFBF0F"/>
<stop offset="0.845568" stop-color="#FFBF0F" stop-opacity="0"/>
</linearGradient>
<linearGradient id="paint3_linear_153_2221" x1="297.818" y1="69" x2="284.071" y2="190.329" gradientUnits="userSpaceOnUse">
<stop offset="0.02" stop-color="#FFBF0F" stop-opacity="0"/>
<stop offset="0.334654" stop-color="#FFBF0F"/>
<stop offset="0.655117" stop-color="#FFBF0F"/>
<stop offset="1" stop-color="#FFBF0F" stop-opacity="0"/>
</linearGradient>
<linearGradient id="paint4_linear_153_2221" x1="271.017" y1="83.3308" x2="286.909" y2="109.88" gradientUnits="userSpaceOnUse">
<stop stop-color="#FFBF0F"/>
<stop offset="0.882699" stop-color="#101010"/>
</linearGradient>
<clipPath id="clip0_153_2221">
<rect width="300" height="250" fill="white"/>
</clipPath>
</defs>
</svg>
