<svg width="184" height="39" viewBox="0 0 184 39" fill="none" xmlns="http://www.w3.org/2000/svg">
<path d="M19.167 34.4646V4.82422L33.5091 9.60492C33.5091 9.60492 32.3721 20.4511 28.7284 25.8593C25.7631 30.2606 19.167 34.4646 19.167 34.4646Z" fill="#AFB6BF"/>
<path d="M19.1667 1L10.0833 3.86842L1 6.73684C1 6.73684 2.23344 20.6548 5.7807 26.8158C9.32796 32.9768 19.1667 38.2895 19.1667 38.2895" stroke="#7C7C7C" stroke-linecap="round" stroke-linejoin="round"/>
<path d="M19.1663 1L28.2497 3.86842L37.333 6.73684C37.333 6.73684 36.0996 20.6548 32.5523 26.8158C29.005 32.9768 19.1663 38.2895 19.1663 38.2895" stroke="#7C7C7C" stroke-linecap="round" stroke-linejoin="round"/>
<path d="M49.9912 3.89062L52.042 9.33984L54.0879 3.89062H55.6846V11H54.4541V8.65625L54.5762 5.52148L52.4766 11H51.5928L49.498 5.52637L49.6201 8.65625V11H48.3896V3.89062H49.9912ZM58.3115 7.39648H59.4736C59.9066 7.39648 60.2842 7.47135 60.6064 7.62109C60.9287 7.77083 61.1729 7.98079 61.3389 8.25098C61.5081 8.52116 61.5928 8.83529 61.5928 9.19336C61.5928 9.73698 61.4007 10.1732 61.0166 10.502C60.6325 10.8307 60.1214 10.9967 59.4834 11H57.125V5.7168H58.3115V7.39648ZM63.6582 11H62.4717V5.7168H63.6582V11ZM58.3115 8.34863V10.0527H59.4688C59.7585 10.0527 59.9863 9.98112 60.1523 9.83789C60.3216 9.69141 60.4062 9.4847 60.4062 9.21777C60.4062 8.95085 60.3232 8.74089 60.1572 8.58789C59.9945 8.43164 59.7731 8.35189 59.4932 8.34863H58.3115ZM71.0898 6.67383H68.7949V11H67.6133V5.7168H71.0898V6.67383ZM74.918 11C74.8659 10.8991 74.8203 10.7347 74.7812 10.5068C74.4036 10.9007 73.9414 11.0977 73.3945 11.0977C72.8639 11.0977 72.431 10.9463 72.0957 10.6436C71.7604 10.3408 71.5928 9.96647 71.5928 9.52051C71.5928 8.95736 71.8011 8.52604 72.2178 8.22656C72.6377 7.92383 73.2367 7.77246 74.0146 7.77246H74.7422V7.42578C74.7422 7.15234 74.6657 6.93424 74.5127 6.77148C74.3597 6.60547 74.127 6.52246 73.8145 6.52246C73.5443 6.52246 73.3229 6.59082 73.1504 6.72754C72.9779 6.861 72.8916 7.0319 72.8916 7.24023H71.7051C71.7051 6.95052 71.8011 6.68034 71.9932 6.42969C72.1852 6.17578 72.4456 5.97721 72.7744 5.83398C73.1064 5.69076 73.4759 5.61914 73.8828 5.61914C74.5013 5.61914 74.9945 5.77539 75.3623 6.08789C75.7301 6.39714 75.9189 6.83333 75.9287 7.39648V9.7793C75.9287 10.2546 75.9954 10.6338 76.1289 10.917V11H74.918ZM73.6143 10.1455C73.8486 10.1455 74.0684 10.0885 74.2734 9.97461C74.4818 9.86068 74.638 9.70768 74.7422 9.51562V8.51953H74.1025C73.6631 8.51953 73.3327 8.59603 73.1113 8.74902C72.89 8.90202 72.7793 9.11849 72.7793 9.39844C72.7793 9.6263 72.8542 9.80859 73.0039 9.94531C73.1569 10.0788 73.3604 10.1455 73.6143 10.1455ZM81.7979 8.41211C81.7979 9.22917 81.6123 9.88184 81.2412 10.3701C80.8701 10.8551 80.3721 11.0977 79.7471 11.0977C79.1676 11.0977 78.7038 10.9072 78.3555 10.5264V13.0312H77.1689V5.7168H78.2627L78.3115 6.25391C78.6598 5.83073 79.1335 5.61914 79.7324 5.61914C80.377 5.61914 80.8815 5.86003 81.2461 6.3418C81.6139 6.82031 81.7979 7.486 81.7979 8.33887V8.41211ZM80.6162 8.30957C80.6162 7.78223 80.5104 7.36393 80.2988 7.05469C80.0905 6.74544 79.791 6.59082 79.4004 6.59082C78.9154 6.59082 78.5671 6.79102 78.3555 7.19141V9.53516C78.5703 9.94531 78.9219 10.1504 79.4102 10.1504C79.7878 10.1504 80.0824 9.99902 80.2939 9.69629C80.5088 9.3903 80.6162 8.92806 80.6162 8.30957ZM85.9629 11C85.9108 10.8991 85.8652 10.7347 85.8262 10.5068C85.4486 10.9007 84.9863 11.0977 84.4395 11.0977C83.9089 11.0977 83.4759 10.9463 83.1406 10.6436C82.8053 10.3408 82.6377 9.96647 82.6377 9.52051C82.6377 8.95736 82.846 8.52604 83.2627 8.22656C83.6826 7.92383 84.2816 7.77246 85.0596 7.77246H85.7871V7.42578C85.7871 7.15234 85.7106 6.93424 85.5576 6.77148C85.4046 6.60547 85.1719 6.52246 84.8594 6.52246C84.5892 6.52246 84.3678 6.59082 84.1953 6.72754C84.0228 6.861 83.9365 7.0319 83.9365 7.24023H82.75C82.75 6.95052 82.846 6.68034 83.0381 6.42969C83.2301 6.17578 83.4906 5.97721 83.8193 5.83398C84.1514 5.69076 84.5208 5.61914 84.9277 5.61914C85.5462 5.61914 86.0394 5.77539 86.4072 6.08789C86.7751 6.39714 86.9639 6.83333 86.9736 7.39648V9.7793C86.9736 10.2546 87.0404 10.6338 87.1738 10.917V11H85.9629ZM84.6592 10.1455C84.8936 10.1455 85.1133 10.0885 85.3184 9.97461C85.5267 9.86068 85.6829 9.70768 85.7871 9.51562V8.51953H85.1475C84.708 8.51953 84.3776 8.59603 84.1562 8.74902C83.9349 8.90202 83.8242 9.11849 83.8242 9.39844C83.8242 9.6263 83.8991 9.80859 84.0488 9.94531C84.2018 10.0788 84.4053 10.1455 84.6592 10.1455ZM92.6914 11H91.5049V8.86621H89.4492V11H88.2627V5.7168H89.4492V7.91895H91.5049V5.7168H92.6914V11ZM98.1162 6.65918H96.4023V11H95.2158V6.65918H93.5215V5.7168H98.1162V6.65918ZM102.208 5.7168H103.39V11H102.208V7.47461L100.138 11H98.9561V5.7168H100.138V9.24219L102.208 5.7168ZM109.278 8.41211C109.278 9.22917 109.093 9.88184 108.722 10.3701C108.351 10.8551 107.853 11.0977 107.228 11.0977C106.648 11.0977 106.184 10.9072 105.836 10.5264V13.0312H104.649V5.7168H105.743L105.792 6.25391C106.14 5.83073 106.614 5.61914 107.213 5.61914C107.857 5.61914 108.362 5.86003 108.727 6.3418C109.094 6.82031 109.278 7.486 109.278 8.33887V8.41211ZM108.097 8.30957C108.097 7.78223 107.991 7.36393 107.779 7.05469C107.571 6.74544 107.271 6.59082 106.881 6.59082C106.396 6.59082 106.048 6.79102 105.836 7.19141V9.53516C106.051 9.94531 106.402 10.1504 106.891 10.1504C107.268 10.1504 107.563 9.99902 107.774 9.69629C107.989 9.3903 108.097 8.92806 108.097 8.30957ZM112.076 9.30078L113.15 5.7168H114.415L112.315 11.8008C111.993 12.6895 111.446 13.1338 110.675 13.1338C110.502 13.1338 110.312 13.1045 110.104 13.0459V12.1279L110.328 12.1426C110.628 12.1426 110.852 12.0872 111.002 11.9766C111.155 11.8691 111.275 11.6868 111.363 11.4297L111.534 10.9756L109.679 5.7168H110.958L112.076 9.30078ZM117.359 11.0977C116.607 11.0977 115.997 10.8617 115.528 10.3896C115.063 9.91439 114.83 9.28288 114.83 8.49512V8.34863C114.83 7.82129 114.931 7.35091 115.133 6.9375C115.338 6.52083 115.624 6.19694 115.992 5.96582C116.36 5.7347 116.77 5.61914 117.223 5.61914C117.942 5.61914 118.497 5.84863 118.888 6.30762C119.282 6.7666 119.479 7.41602 119.479 8.25586V8.73438H116.026C116.062 9.17057 116.207 9.51562 116.461 9.76953C116.718 10.0234 117.04 10.1504 117.428 10.1504C117.971 10.1504 118.414 9.93066 118.756 9.49121L119.396 10.1016C119.184 10.4173 118.901 10.6631 118.546 10.8389C118.194 11.0114 117.799 11.0977 117.359 11.0977ZM117.218 6.57129C116.892 6.57129 116.629 6.68522 116.427 6.91309C116.228 7.14095 116.101 7.45833 116.046 7.86523H118.307V7.77734C118.281 7.38021 118.175 7.08073 117.989 6.87891C117.804 6.67383 117.547 6.57129 117.218 6.57129ZM123.541 9.54004L125.104 5.7168H126.588V11H125.401V7.50391L123.946 11H123.141L121.681 7.48438V11H120.494V5.7168H121.988L123.541 9.54004ZM50.7627 18.0098C51.4268 18.0098 51.959 18.2327 52.3594 18.6787C52.7598 19.1214 52.96 19.7236 52.96 20.4854V20.5439C52.96 21.3057 52.7419 21.9225 52.3057 22.3945C51.8727 22.8665 51.2835 23.1025 50.5381 23.1025C49.8122 23.1025 49.2262 22.8617 48.7803 22.3799C48.3343 21.8981 48.1113 21.2406 48.1113 20.4072V20.0654C48.1113 18.9261 48.3132 18.0244 48.7168 17.3604C49.1204 16.6963 49.7227 16.2812 50.5234 16.1152C50.9727 16.0241 51.2624 15.9281 51.3926 15.8271C51.526 15.723 51.5928 15.583 51.5928 15.4072H52.5498C52.5498 15.736 52.4961 16.0029 52.3887 16.208C52.2812 16.4131 52.1169 16.5807 51.8955 16.7109C51.6742 16.8379 51.2933 16.9583 50.7529 17.0723C50.2581 17.1764 49.8805 17.362 49.6201 17.6289C49.363 17.8958 49.1904 18.2653 49.1025 18.7373C49.5745 18.2523 50.1279 18.0098 50.7627 18.0098ZM50.5283 18.9619C50.1442 18.9619 49.8431 19.0921 49.625 19.3525C49.4069 19.6097 49.2979 20.0068 49.2979 20.5439C49.2979 21.0518 49.4053 21.4473 49.6201 21.7305C49.835 22.0137 50.141 22.1553 50.5381 22.1553C50.932 22.1553 51.2363 22.0137 51.4512 21.7305C51.6693 21.444 51.7783 21.0143 51.7783 20.4414C51.7783 19.9857 51.6693 19.626 51.4512 19.3623C51.2363 19.0954 50.9287 18.9619 50.5283 18.9619ZM56.2168 23.0977C55.4648 23.0977 54.8545 22.8617 54.3857 22.3896C53.9202 21.9144 53.6875 21.2829 53.6875 20.4951V20.3486C53.6875 19.8213 53.7884 19.3509 53.9902 18.9375C54.1953 18.5208 54.4818 18.1969 54.8496 17.9658C55.2174 17.7347 55.6276 17.6191 56.0801 17.6191C56.7995 17.6191 57.3545 17.8486 57.7451 18.3076C58.139 18.7666 58.3359 19.416 58.3359 20.2559V20.7344H54.8838C54.9196 21.1706 55.0645 21.5156 55.3184 21.7695C55.5755 22.0234 55.8978 22.1504 56.2852 22.1504C56.8288 22.1504 57.2715 21.9307 57.6133 21.4912L58.2529 22.1016C58.0413 22.4173 57.7581 22.6631 57.4033 22.8389C57.0518 23.0114 56.6562 23.0977 56.2168 23.0977ZM56.0752 18.5713C55.7497 18.5713 55.486 18.6852 55.2842 18.9131C55.0856 19.141 54.9587 19.4583 54.9033 19.8652H57.1641V19.7773C57.138 19.3802 57.0322 19.0807 56.8467 18.8789C56.6611 18.6738 56.404 18.5713 56.0752 18.5713ZM63.2627 19.1621C63.2627 19.3965 63.1911 19.613 63.0479 19.8115C62.9079 20.0068 62.7093 20.1631 62.4521 20.2803C63.0576 20.4919 63.3604 20.9004 63.3604 21.5059C63.3604 21.9909 63.1634 22.3783 62.7695 22.668C62.3757 22.9544 61.8483 23.0977 61.1875 23.0977C60.7839 23.0977 60.416 23.0309 60.084 22.8975C59.752 22.7607 59.4932 22.5687 59.3076 22.3213C59.1221 22.0706 59.0293 21.7744 59.0293 21.4326H60.2109C60.2109 21.6475 60.307 21.8281 60.499 21.9746C60.6911 22.1178 60.9336 22.1895 61.2266 22.1895C61.5163 22.1895 61.7458 22.1227 61.915 21.9893C62.0876 21.8525 62.1738 21.6751 62.1738 21.457C62.1738 21.1999 62.099 21.0143 61.9492 20.9004C61.7995 20.7865 61.5684 20.7295 61.2559 20.7295H60.4062V19.875H61.2852C61.8158 19.8685 62.0811 19.6504 62.0811 19.2207C62.0811 19.0059 62.0046 18.8382 61.8516 18.7178C61.6986 18.5973 61.4886 18.5371 61.2217 18.5371C60.9613 18.5371 60.7415 18.6022 60.5625 18.7324C60.3835 18.8594 60.2939 19.0205 60.2939 19.2158H59.1123C59.1123 18.7503 59.3076 18.3695 59.6982 18.0732C60.0889 17.7738 60.5853 17.624 61.1875 17.624C61.8418 17.624 62.3512 17.7575 62.7158 18.0244C63.0804 18.2913 63.2627 18.6706 63.2627 19.1621ZM64.1465 20.3096C64.1465 19.792 64.249 19.3265 64.4541 18.9131C64.6592 18.4964 64.9473 18.1774 65.3184 17.9561C65.6895 17.7314 66.1159 17.6191 66.5977 17.6191C67.3105 17.6191 67.8883 17.8486 68.3311 18.3076C68.777 18.7666 69.0179 19.3753 69.0537 20.1338L69.0586 20.4121C69.0586 20.9329 68.9577 21.3984 68.7559 21.8086C68.5573 22.2188 68.2708 22.5361 67.8965 22.7607C67.5254 22.9854 67.0957 23.0977 66.6074 23.0977C65.862 23.0977 65.2646 22.8503 64.8154 22.3555C64.3695 21.8574 64.1465 21.195 64.1465 20.3682V20.3096ZM65.333 20.4121C65.333 20.9557 65.4453 21.3822 65.6699 21.6914C65.8945 21.9974 66.207 22.1504 66.6074 22.1504C67.0078 22.1504 67.3187 21.9941 67.54 21.6816C67.7646 21.3691 67.877 20.9118 67.877 20.3096C67.877 19.7757 67.7614 19.3525 67.5303 19.04C67.3024 18.7275 66.9915 18.5713 66.5977 18.5713C66.2103 18.5713 65.9027 18.7259 65.6748 19.0352C65.4469 19.3411 65.333 19.8001 65.333 20.4121ZM74.542 23H73.3555V18.6738H71.2949V23H70.1084V17.7168H74.542V23ZM78.9609 23C78.9089 22.8991 78.8633 22.7347 78.8242 22.5068C78.4466 22.9007 77.9844 23.0977 77.4375 23.0977C76.9069 23.0977 76.474 22.9463 76.1387 22.6436C75.8034 22.3408 75.6357 21.9665 75.6357 21.5205C75.6357 20.9574 75.8441 20.526 76.2607 20.2266C76.6807 19.9238 77.2796 19.7725 78.0576 19.7725H78.7852V19.4258C78.7852 19.1523 78.7087 18.9342 78.5557 18.7715C78.4027 18.6055 78.1699 18.5225 77.8574 18.5225C77.5872 18.5225 77.3659 18.5908 77.1934 18.7275C77.0208 18.861 76.9346 19.0319 76.9346 19.2402H75.748C75.748 18.9505 75.8441 18.6803 76.0361 18.4297C76.2282 18.1758 76.4886 17.9772 76.8174 17.834C77.1494 17.6908 77.5189 17.6191 77.9258 17.6191C78.5443 17.6191 79.0374 17.7754 79.4053 18.0879C79.7731 18.3971 79.9619 18.8333 79.9717 19.3965V21.7793C79.9717 22.2546 80.0384 22.6338 80.1719 22.917V23H78.9609ZM77.6572 22.1455C77.8916 22.1455 78.1113 22.0885 78.3164 21.9746C78.5247 21.8607 78.681 21.7077 78.7852 21.5156V20.5195H78.1455C77.7061 20.5195 77.3757 20.596 77.1543 20.749C76.9329 20.902 76.8223 21.1185 76.8223 21.3984C76.8223 21.6263 76.8971 21.8086 77.0469 21.9453C77.1999 22.0788 77.4033 22.1455 77.6572 22.1455ZM83.3848 22.1504C83.681 22.1504 83.9268 22.0641 84.1221 21.8916C84.3174 21.7191 84.4215 21.5059 84.4346 21.252H85.5527C85.5397 21.5807 85.4372 21.8883 85.2451 22.1748C85.0531 22.458 84.7926 22.6826 84.4639 22.8486C84.1351 23.0146 83.7803 23.0977 83.3994 23.0977C82.6605 23.0977 82.0745 22.8584 81.6416 22.3799C81.2087 21.9014 80.9922 21.2406 80.9922 20.3975V20.2754C80.9922 19.4714 81.207 18.8285 81.6367 18.3467C82.0664 17.8617 82.6523 17.6191 83.3945 17.6191C84.0228 17.6191 84.5339 17.8031 84.9277 18.1709C85.3249 18.5355 85.5332 19.0156 85.5527 19.6113H84.4346C84.4215 19.3086 84.3174 19.0596 84.1221 18.8643C83.93 18.6689 83.6842 18.5713 83.3848 18.5713C83.0007 18.5713 82.7044 18.7113 82.4961 18.9912C82.2878 19.2679 82.182 19.6895 82.1787 20.2559V20.4463C82.1787 21.0192 82.2812 21.4473 82.4863 21.7305C82.6947 22.0104 82.9941 22.1504 83.3848 22.1504ZM90.9238 23H89.7373V20.8662H87.6816V23H86.4951V17.7168H87.6816V19.9189H89.7373V17.7168H90.9238V23ZM91.9688 20.3096C91.9688 19.792 92.0713 19.3265 92.2764 18.9131C92.4814 18.4964 92.7695 18.1774 93.1406 17.9561C93.5117 17.7314 93.9382 17.6191 94.4199 17.6191C95.1328 17.6191 95.7106 17.8486 96.1533 18.3076C96.5993 18.7666 96.8402 19.3753 96.876 20.1338L96.8809 20.4121C96.8809 20.9329 96.7799 21.3984 96.5781 21.8086C96.3796 22.2188 96.0931 22.5361 95.7188 22.7607C95.3477 22.9854 94.918 23.0977 94.4297 23.0977C93.6842 23.0977 93.0869 22.8503 92.6377 22.3555C92.1917 21.8574 91.9688 21.195 91.9688 20.3682V20.3096ZM93.1553 20.4121C93.1553 20.9557 93.2676 21.3822 93.4922 21.6914C93.7168 21.9974 94.0293 22.1504 94.4297 22.1504C94.8301 22.1504 95.141 21.9941 95.3623 21.6816C95.5869 21.3691 95.6992 20.9118 95.6992 20.3096C95.6992 19.7757 95.5837 19.3525 95.3525 19.04C95.1247 18.7275 94.8138 18.5713 94.4199 18.5713C94.0326 18.5713 93.7249 18.7259 93.4971 19.0352C93.2692 19.3411 93.1553 19.8001 93.1553 20.4121ZM100.055 22.1504C100.351 22.1504 100.597 22.0641 100.792 21.8916C100.987 21.7191 101.091 21.5059 101.104 21.252H102.223C102.21 21.5807 102.107 21.8883 101.915 22.1748C101.723 22.458 101.463 22.6826 101.134 22.8486C100.805 23.0146 100.45 23.0977 100.069 23.0977C99.3304 23.0977 98.7445 22.8584 98.3115 22.3799C97.8786 21.9014 97.6621 21.2406 97.6621 20.3975V20.2754C97.6621 19.4714 97.877 18.8285 98.3066 18.3467C98.7363 17.8617 99.3223 17.6191 100.064 17.6191C100.693 17.6191 101.204 17.8031 101.598 18.1709C101.995 18.5355 102.203 19.0156 102.223 19.6113H101.104C101.091 19.3086 100.987 19.0596 100.792 18.8643C100.6 18.6689 100.354 18.5713 100.055 18.5713C99.6706 18.5713 99.3743 18.7113 99.166 18.9912C98.9577 19.2679 98.8519 19.6895 98.8486 20.2559V20.4463C98.8486 21.0192 98.9512 21.4473 99.1562 21.7305C99.3646 22.0104 99.6641 22.1504 100.055 22.1504ZM107.276 18.6592H105.562V23H104.376V18.6592H102.682V17.7168H107.276V18.6592ZM109.347 19.3965H110.509C110.942 19.3965 111.319 19.4714 111.642 19.6211C111.964 19.7708 112.208 19.9808 112.374 20.251C112.543 20.5212 112.628 20.8353 112.628 21.1934C112.628 21.737 112.436 22.1732 112.052 22.502C111.668 22.8307 111.157 22.9967 110.519 23H108.16V17.7168H109.347V19.3965ZM109.347 20.3486V22.0527H110.504C110.794 22.0527 111.021 21.9811 111.188 21.8379C111.357 21.6914 111.441 21.4847 111.441 21.2178C111.441 20.9508 111.358 20.7409 111.192 20.5879C111.03 20.4316 110.808 20.3519 110.528 20.3486H109.347ZM119.366 17.7168H120.548V23H119.366V19.4746L117.296 23H116.114V17.7168H117.296V21.2422L119.366 17.7168ZM126.471 22.1504C126.767 22.1504 127.013 22.0641 127.208 21.8916C127.403 21.7191 127.507 21.5059 127.521 21.252H128.639C128.626 21.5807 128.523 21.8883 128.331 22.1748C128.139 22.458 127.879 22.6826 127.55 22.8486C127.221 23.0146 126.866 23.0977 126.485 23.0977C125.746 23.0977 125.16 22.8584 124.728 22.3799C124.295 21.9014 124.078 21.2406 124.078 20.3975V20.2754C124.078 19.4714 124.293 18.8285 124.723 18.3467C125.152 17.8617 125.738 17.6191 126.48 17.6191C127.109 17.6191 127.62 17.8031 128.014 18.1709C128.411 18.5355 128.619 19.0156 128.639 19.6113H127.521C127.507 19.3086 127.403 19.0596 127.208 18.8643C127.016 18.6689 126.77 18.5713 126.471 18.5713C126.087 18.5713 125.79 18.7113 125.582 18.9912C125.374 19.2679 125.268 19.6895 125.265 20.2559V20.4463C125.265 21.0192 125.367 21.4473 125.572 21.7305C125.781 22.0104 126.08 22.1504 126.471 22.1504ZM129.312 20.3096C129.312 19.792 129.415 19.3265 129.62 18.9131C129.825 18.4964 130.113 18.1774 130.484 17.9561C130.855 17.7314 131.282 17.6191 131.764 17.6191C132.477 17.6191 133.054 17.8486 133.497 18.3076C133.943 18.7666 134.184 19.3753 134.22 20.1338L134.225 20.4121C134.225 20.9329 134.124 21.3984 133.922 21.8086C133.723 22.2188 133.437 22.5361 133.062 22.7607C132.691 22.9854 132.262 23.0977 131.773 23.0977C131.028 23.0977 130.431 22.8503 129.981 22.3555C129.535 21.8574 129.312 21.195 129.312 20.3682V20.3096ZM130.499 20.4121C130.499 20.9557 130.611 21.3822 130.836 21.6914C131.061 21.9974 131.373 22.1504 131.773 22.1504C132.174 22.1504 132.485 21.9941 132.706 21.6816C132.931 21.3691 133.043 20.9118 133.043 20.3096C133.043 19.7757 132.927 19.3525 132.696 19.04C132.468 18.7275 132.158 18.5713 131.764 18.5713C131.376 18.5713 131.069 18.7259 130.841 19.0352C130.613 19.3411 130.499 19.8001 130.499 20.4121ZM137.018 19.4551L138.023 17.7168H139.342L137.726 20.3193L139.396 23H138.087L137.032 21.1934L135.982 23H134.664L136.334 20.3193L134.723 17.7168H136.031L137.018 19.4551ZM144.776 20.4121C144.776 21.2292 144.591 21.8818 144.22 22.3701C143.849 22.8551 143.351 23.0977 142.726 23.0977C142.146 23.0977 141.682 22.9072 141.334 22.5264V25.0312H140.147V17.7168H141.241L141.29 18.2539C141.638 17.8307 142.112 17.6191 142.711 17.6191C143.355 17.6191 143.86 17.86 144.225 18.3418C144.592 18.8203 144.776 19.486 144.776 20.3389V20.4121ZM143.595 20.3096C143.595 19.7822 143.489 19.3639 143.277 19.0547C143.069 18.7454 142.77 18.5908 142.379 18.5908C141.894 18.5908 141.546 18.791 141.334 19.1914V21.5352C141.549 21.9453 141.9 22.1504 142.389 22.1504C142.766 22.1504 143.061 21.999 143.272 21.6963C143.487 21.3903 143.595 20.9281 143.595 20.3096ZM148.941 23C148.889 22.8991 148.844 22.7347 148.805 22.5068C148.427 22.9007 147.965 23.0977 147.418 23.0977C146.887 23.0977 146.454 22.9463 146.119 22.6436C145.784 22.3408 145.616 21.9665 145.616 21.5205C145.616 20.9574 145.825 20.526 146.241 20.2266C146.661 19.9238 147.26 19.7725 148.038 19.7725H148.766V19.4258C148.766 19.1523 148.689 18.9342 148.536 18.7715C148.383 18.6055 148.15 18.5225 147.838 18.5225C147.568 18.5225 147.346 18.5908 147.174 18.7275C147.001 18.861 146.915 19.0319 146.915 19.2402H145.729C145.729 18.9505 145.825 18.6803 146.017 18.4297C146.209 18.1758 146.469 17.9772 146.798 17.834C147.13 17.6908 147.499 17.6191 147.906 17.6191C148.525 17.6191 149.018 17.7754 149.386 18.0879C149.754 18.3971 149.942 18.8333 149.952 19.3965V21.7793C149.952 22.2546 150.019 22.6338 150.152 22.917V23H148.941ZM147.638 22.1455C147.872 22.1455 148.092 22.0885 148.297 21.9746C148.505 21.8607 148.661 21.7077 148.766 21.5156V20.5195H148.126C147.687 20.5195 147.356 20.596 147.135 20.749C146.913 20.902 146.803 21.1185 146.803 21.3984C146.803 21.6263 146.878 21.8086 147.027 21.9453C147.18 22.0788 147.384 22.1455 147.638 22.1455ZM155.67 23H154.483V20.8662H152.428V23H151.241V17.7168H152.428V19.9189H154.483V17.7168H155.67V23ZM161.412 23H160.226V20.8662H158.17V23H156.983V17.7168H158.17V19.9189H160.226V17.7168H161.412V23ZM162.457 20.3096C162.457 19.792 162.56 19.3265 162.765 18.9131C162.97 18.4964 163.258 18.1774 163.629 17.9561C164 17.7314 164.426 17.6191 164.908 17.6191C165.621 17.6191 166.199 17.8486 166.642 18.3076C167.088 18.7666 167.328 19.3753 167.364 20.1338L167.369 20.4121C167.369 20.9329 167.268 21.3984 167.066 21.8086C166.868 22.2188 166.581 22.5361 166.207 22.7607C165.836 22.9854 165.406 23.0977 164.918 23.0977C164.173 23.0977 163.575 22.8503 163.126 22.3555C162.68 21.8574 162.457 21.195 162.457 20.3682V20.3096ZM163.644 20.4121C163.644 20.9557 163.756 21.3822 163.98 21.6914C164.205 21.9974 164.518 22.1504 164.918 22.1504C165.318 22.1504 165.629 21.9941 165.851 21.6816C166.075 21.3691 166.188 20.9118 166.188 20.3096C166.188 19.7757 166.072 19.3525 165.841 19.04C165.613 18.7275 165.302 18.5713 164.908 18.5713C164.521 18.5713 164.213 18.7259 163.985 19.0352C163.757 19.3411 163.644 19.8001 163.644 20.4121ZM170.543 22.1504C170.839 22.1504 171.085 22.0641 171.28 21.8916C171.476 21.7191 171.58 21.5059 171.593 21.252H172.711C172.698 21.5807 172.595 21.8883 172.403 22.1748C172.211 22.458 171.951 22.6826 171.622 22.8486C171.293 23.0146 170.938 23.0977 170.558 23.0977C169.819 23.0977 169.233 22.8584 168.8 22.3799C168.367 21.9014 168.15 21.2406 168.15 20.3975V20.2754C168.15 19.4714 168.365 18.8285 168.795 18.3467C169.225 17.8617 169.811 17.6191 170.553 17.6191C171.181 17.6191 171.692 17.8031 172.086 18.1709C172.483 18.5355 172.691 19.0156 172.711 19.6113H171.593C171.58 19.3086 171.476 19.0596 171.28 18.8643C171.088 18.6689 170.842 18.5713 170.543 18.5713C170.159 18.5713 169.863 18.7113 169.654 18.9912C169.446 19.2679 169.34 19.6895 169.337 20.2559V20.4463C169.337 21.0192 169.439 21.4473 169.645 21.7305C169.853 22.0104 170.152 22.1504 170.543 22.1504ZM177.765 18.6592H176.051V23H174.864V18.6592H173.17V17.7168H177.765V18.6592ZM179.835 19.3965H180.997C181.43 19.3965 181.808 19.4714 182.13 19.6211C182.452 19.7708 182.696 19.9808 182.862 20.251C183.032 20.5212 183.116 20.8353 183.116 21.1934C183.116 21.737 182.924 22.1732 182.54 22.502C182.156 22.8307 181.645 22.9967 181.007 23H178.648V17.7168H179.835V19.3965ZM179.835 20.3486V22.0527H180.992C181.282 22.0527 181.51 21.9811 181.676 21.8379C181.845 21.6914 181.93 21.4847 181.93 21.2178C181.93 20.9508 181.847 20.7409 181.681 20.5879C181.518 20.4316 181.297 20.3519 181.017 20.3486H179.835ZM48.3652 35V29.7168H50.5088C51.2314 29.7168 51.7816 29.8438 52.1592 30.0977C52.5368 30.3483 52.7256 30.7096 52.7256 31.1816C52.7256 31.4258 52.6491 31.6455 52.4961 31.8408C52.3464 32.0329 52.1234 32.181 51.8271 32.2852C52.1722 32.3568 52.4456 32.5016 52.6475 32.7197C52.8493 32.9378 52.9502 33.195 52.9502 33.4912C52.9502 33.9827 52.7679 34.3571 52.4033 34.6143C52.042 34.8714 51.5212 35 50.8408 35H48.3652ZM49.5518 32.749V34.0625H50.8506C51.4593 34.0625 51.7637 33.8444 51.7637 33.4082C51.7637 32.9688 51.4544 32.749 50.8359 32.749H49.5518ZM49.5518 31.8994H50.5283C51.2021 31.8994 51.5391 31.7008 51.5391 31.3037C51.5391 30.887 51.2201 30.6722 50.582 30.6592H49.5518V31.8994ZM57.1348 35C57.0827 34.8991 57.0371 34.7347 56.998 34.5068C56.6204 34.9007 56.1582 35.0977 55.6113 35.0977C55.0807 35.0977 54.6478 34.9463 54.3125 34.6436C53.9772 34.3408 53.8096 33.9665 53.8096 33.5205C53.8096 32.9574 54.0179 32.526 54.4346 32.2266C54.8545 31.9238 55.4535 31.7725 56.2314 31.7725H56.959V31.4258C56.959 31.1523 56.8825 30.9342 56.7295 30.7715C56.5765 30.6055 56.3438 30.5225 56.0312 30.5225C55.7611 30.5225 55.5397 30.5908 55.3672 30.7275C55.1947 30.861 55.1084 31.0319 55.1084 31.2402H53.9219C53.9219 30.9505 54.0179 30.6803 54.21 30.4297C54.402 30.1758 54.6624 29.9772 54.9912 29.834C55.3232 29.6908 55.6927 29.6191 56.0996 29.6191C56.7181 29.6191 57.2113 29.7754 57.5791 30.0879C57.9469 30.3971 58.1357 30.8333 58.1455 31.3965V33.7793C58.1455 34.2546 58.2122 34.6338 58.3457 34.917V35H57.1348ZM55.8311 34.1455C56.0654 34.1455 56.2852 34.0885 56.4902 33.9746C56.6986 33.8607 56.8548 33.7077 56.959 33.5156V32.5195H56.3193C55.8799 32.5195 55.5495 32.596 55.3281 32.749C55.1068 32.902 54.9961 33.1185 54.9961 33.3984C54.9961 33.6263 55.071 33.8086 55.2207 33.9453C55.3737 34.0788 55.5771 34.1455 55.8311 34.1455ZM60.6211 29.7168V34.0527H62.2715V29.7168H63.458V34.0527H65.1133V29.7168H66.2949V35H59.4346V29.7168H60.6211ZM70.8799 29.7168H72.0615V35H70.8799V31.4746L68.8096 35H67.6279V29.7168H68.8096V33.2422L70.8799 29.7168ZM75.2207 31.4551L76.2266 29.7168H77.5449L75.9287 32.3193L77.5986 35H76.29L75.2354 33.1934L74.1855 35H72.8672L74.5371 32.3193L72.9258 29.7168H74.2344L75.2207 31.4551ZM80.8652 34.0527C81.194 33.6849 81.4137 33.3366 81.5244 33.0078C81.6383 32.6758 81.7067 32.2526 81.7295 31.7383L81.7979 29.7168H85.4648V34.0527H86.1973V36.5723H85.0156V35H81.627V36.5723H80.4258L80.4307 34.0527H80.8652ZM82.2568 34.0527H84.2832V30.7373H82.9502L82.916 31.748C82.8704 32.7181 82.6507 33.4863 82.2568 34.0527ZM90.2012 35C90.1491 34.8991 90.1035 34.7347 90.0645 34.5068C89.6868 34.9007 89.2246 35.0977 88.6777 35.0977C88.1471 35.0977 87.7142 34.9463 87.3789 34.6436C87.0436 34.3408 86.876 33.9665 86.876 33.5205C86.876 32.9574 87.0843 32.526 87.501 32.2266C87.9209 31.9238 88.5199 31.7725 89.2979 31.7725H90.0254V31.4258C90.0254 31.1523 89.9489 30.9342 89.7959 30.7715C89.6429 30.6055 89.4102 30.5225 89.0977 30.5225C88.8275 30.5225 88.6061 30.5908 88.4336 30.7275C88.2611 30.861 88.1748 31.0319 88.1748 31.2402H86.9883C86.9883 30.9505 87.0843 30.6803 87.2764 30.4297C87.4684 30.1758 87.7288 29.9772 88.0576 29.834C88.3896 29.6908 88.7591 29.6191 89.166 29.6191C89.7845 29.6191 90.2777 29.7754 90.6455 30.0879C91.0133 30.3971 91.2021 30.8333 91.2119 31.3965V33.7793C91.2119 34.2546 91.2786 34.6338 91.4121 34.917V35H90.2012ZM88.8975 34.1455C89.1318 34.1455 89.3516 34.0885 89.5566 33.9746C89.765 33.8607 89.9212 33.7077 90.0254 33.5156V32.5195H89.3857C88.9463 32.5195 88.6159 32.596 88.3945 32.749C88.1732 32.902 88.0625 33.1185 88.0625 33.3984C88.0625 33.6263 88.1374 33.8086 88.2871 33.9453C88.4401 34.0788 88.6436 34.1455 88.8975 34.1455ZM96.9297 35H95.7432V32.8662H93.6875V35H92.501V29.7168H93.6875V31.9189H95.7432V29.7168H96.9297V35ZM102.672 35H101.485V32.8662H99.4297V35H98.2432V29.7168H99.4297V31.9189H101.485V29.7168H102.672V35ZM105.216 31.3965H106.378C106.811 31.3965 107.188 31.4714 107.511 31.6211C107.833 31.7708 108.077 31.9808 108.243 32.251C108.412 32.5212 108.497 32.8353 108.497 33.1934C108.497 33.737 108.305 34.1732 107.921 34.502C107.537 34.8307 107.026 34.9967 106.388 35H104.029V29.7168H105.216V31.3965ZM110.562 35H109.376V29.7168H110.562V35ZM105.216 32.3486V34.0527H106.373C106.663 34.0527 106.891 33.9811 107.057 33.8379C107.226 33.6914 107.311 33.4847 107.311 33.2178C107.311 32.9508 107.228 32.7409 107.062 32.5879C106.899 32.4316 106.677 32.3519 106.397 32.3486H105.216ZM113.883 31.4551L114.889 29.7168H116.207L114.591 32.3193L116.261 35H114.952L113.897 33.1934L112.848 35H111.529L113.199 32.3193L111.588 29.7168H112.896L113.883 31.4551Z" fill="#7C7C7C"/>
</svg>
